<svg width="66" height="73" viewBox="0 0 66 73" fill="none" xmlns="http://www.w3.org/2000/svg">
<g id="cherub">
<g id="cherub_2">
<path d="M36.3689 98.4404C36.3782 98.4476 36.3882 98.454 36.3974 98.4591L36.5158 98.5191C36.5396 98.5346 36.5661 98.5463 36.594 98.5505C36.6105 98.5564 36.6257 98.5646 36.6396 98.5743C36.6831 98.5816 36.7325 98.5985 36.7712 98.6011C36.8776 98.6045 36.9829 98.5787 37.0765 98.5262C36.9559 98.2693 36.8773 97.9949 36.8447 97.7136C36.8383 97.6558 36.8356 97.5983 36.8358 97.5406L36.8402 97.4643L36.8399 97.4001C36.8443 97.3837 36.8482 97.3614 36.8482 97.3614L36.8549 97.312C36.8758 97.1817 36.9085 97.0533 36.9554 96.9303C37.1097 96.5573 37.3488 96.2252 37.6533 95.962C37.824 95.7986 38.0099 95.6528 38.2082 95.525C38.3497 95.4203 38.4545 95.38 38.5115 95.4175C38.5684 95.455 38.5723 95.5685 38.5283 95.7431C38.4397 95.9748 38.3315 96.1972 38.2027 96.4089C37.822 97.0575 37.5754 97.891 38.2646 98.4698C38.2883 98.5007 38.2958 98.5212 38.3185 98.531L38.3417 98.556L38.3534 98.566C38.4172 98.5897 38.4847 98.6066 38.5519 98.6192C38.6141 98.6336 38.6787 98.6413 38.7426 98.6402L38.8399 98.648C38.8507 98.6471 38.8562 98.6525 38.8732 98.6561C38.8895 98.6599 38.8723 98.6452 38.8854 98.6711C38.8907 98.6656 38.8958 98.6652 38.9004 98.6589C38.8443 98.4863 38.8124 98.3079 38.8064 98.1267C38.8051 97.8888 38.8403 97.6529 38.9096 97.4258C39.012 97.0754 39.1713 96.7435 39.3805 96.4446C39.7362 95.9376 40.0916 95.7512 40.1849 95.8404C40.279 95.9295 40.1609 96.2586 40.0106 96.7634C39.9227 97.0454 39.8527 97.3339 39.8034 97.6257C39.6802 98.5773 40.4276 98.6357 40.8981 97.9058C41.1502 97.4361 41.5051 97.0299 41.9364 96.7195C42.3819 96.4487 42.8879 96.3247 43.3262 96.0289C44.1651 95.4283 44.8601 94.6472 45.3599 93.7418C46.3616 91.8439 47.0188 89.7824 47.3023 87.6536C47.3112 87.6134 47.3217 87.5746 47.3359 87.5369C47.3467 87.3644 47.4142 87.2009 47.5274 87.0716C51.1032 82.8507 51.2305 77.3233 52.6542 72.2194C52.5036 72.3622 52.3518 72.4904 52.212 72.598C51.7576 72.9447 51.4293 73.0734 51.3417 72.991C51.1614 72.7844 52.0947 71.7822 52.9567 70.4627C53.0519 70.3086 53.1364 70.1663 53.2154 70.0187C53.4074 69.1744 53.36 68.2922 53.0796 67.4719C52.5077 66.0005 51.4719 63.4975 49.3671 63.8706C47.6037 64.184 46.1194 65.1746 44.5175 65.8999C44.6828 66.4524 44.8171 67.0148 44.9185 67.5837C45.0561 67.8356 45.1771 68.0962 45.2812 68.364C45.4006 68.6663 45.5003 68.9755 45.5801 69.2907C45.6213 69.4595 45.6426 69.6416 45.6682 69.8234L45.7075 70.0968L45.7174 70.3413L45.728 70.5944L45.7327 70.7182L45.7323 70.7824L45.7328 70.8481L45.7298 70.8805L45.732 70.881C45.7195 71.0588 45.6968 71.2359 45.6638 71.4118C45.656 71.4657 45.6445 71.5185 45.6294 71.5716C45.5774 71.8396 45.5062 72.1049 45.417 72.3629C45.3153 72.6533 45.1812 72.9312 45.0189 73.1918C44.943 73.3165 44.8556 73.4334 44.758 73.541C44.6608 73.6457 44.554 73.7402 44.4375 73.8223L44.3291 73.8805C44.3831 74.011 44.4378 74.1421 44.4971 74.275C44.5665 74.4429 44.5694 74.6303 44.5046 74.7993C44.5001 74.815 44.5011 74.8266 44.4974 74.843C43.5655 78.3837 42.4293 81.9912 41.7336 85.5832C41.7052 85.7367 41.6323 85.8787 41.5241 85.9909C41.5188 85.9971 41.5193 86.0022 41.5135 86.0027C39.9415 87.9864 38.4822 90.056 37.1428 92.2054C37.0527 92.3591 36.9154 92.4788 36.7519 92.5467C36.6244 92.6788 36.4532 92.759 36.2705 92.7716C35.1137 92.897 33.728 93.6361 34.0145 94.9477L34.053 94.8963C34.1581 94.7304 34.2562 94.56 34.3768 94.3979C34.5684 94.0881 34.8894 93.8819 35.2496 93.8374C35.4666 93.8518 35.5746 93.9178 35.5873 93.9817C35.6001 94.0464 35.4857 94.1196 35.3224 94.2153C35.1717 94.3653 35.058 94.5488 34.9917 94.7515C34.9343 94.8973 34.8739 95.0755 34.7841 95.2832L34.7057 95.4468C34.6887 95.4862 34.668 95.5245 34.6449 95.56L34.6027 95.6278C34.4127 95.9309 33.9354 96.2044 33.8804 96.5661C33.819 96.9801 34.323 97.4053 34.6778 97.5204C34.8269 97.5647 34.9835 97.5777 35.1379 97.5572L35.192 97.5526L35.2102 97.5781C35.2626 97.5627 35.3119 97.5695 35.3585 97.5545C35.3797 97.5469 35.4069 97.5504 35.423 97.5432C35.427 97.5392 35.4333 97.5372 35.4392 97.5375C35.4714 97.4208 35.506 97.3149 35.5309 97.2318C35.5555 97.1538 35.5735 97.0749 35.5862 96.9942C35.5957 96.9175 35.5978 96.8392 35.5933 96.7614C35.5765 96.5628 35.5639 96.3551 35.5631 96.158C35.5307 95.6913 35.7121 95.2357 36.0558 94.921C36.2842 94.7183 36.5816 94.6113 36.8863 94.6233C37.0529 94.669 37.1536 94.7247 37.1596 94.795C37.1655 94.8646 37.0852 94.9372 36.9254 95.015C36.7892 95.1222 36.6701 95.2506 36.575 95.396C36.4597 95.6043 36.4245 95.8483 36.4769 96.0804C36.5049 96.2729 36.5388 96.4839 36.5672 96.6889C36.5789 96.8273 36.5821 96.9672 36.5757 97.1058C36.557 97.2439 36.5271 97.38 36.4861 97.5135C36.4165 97.7793 36.3389 97.9348 36.3185 98.0797C36.2954 98.1663 36.2929 98.2571 36.3091 98.3455C36.322 98.3772 36.3426 98.4054 36.3698 98.4265L36.3932 98.4457C36.3856 98.4419 36.3776 98.4403 36.3689 98.4404ZM39.5635 8.03689L39.5639 8.04268L39.6065 8.03907L39.7227 8.07227L39.9814 8.14154C40.3334 8.23135 40.7291 8.32329 41.1479 8.46437C41.6569 8.61459 42.118 8.89516 42.4883 9.27692C42.5928 9.40383 42.6866 9.54115 42.7671 9.68543C42.8366 9.83576 42.8934 9.99155 42.9361 10.1522C42.9617 10.3084 42.9773 10.4663 42.9821 10.625L42.9628 10.9019C43.4223 11.0855 43.8425 11.355 44.2028 11.696C44.4994 11.9979 44.7238 12.3635 44.8589 12.7653C44.9757 13.1825 45.017 13.617 44.9788 14.0481C44.9388 14.3976 44.904 14.7575 44.8608 15.1292C44.8623 15.1473 44.8675 15.1658 44.8762 15.1819C44.8603 15.1832 44.9246 15.2478 44.9382 15.2795C45.0456 15.4055 45.1651 15.5465 45.3076 15.7023C45.4692 15.8769 45.618 16.0636 45.7538 16.2594C45.9132 16.494 46.0368 16.7515 46.1195 17.0233C46.1656 17.1808 46.1917 17.3428 46.1984 17.5073L46.1989 17.7613L46.1511 18.0194C46.1152 18.186 46.0532 18.3461 45.9707 18.4947L45.9608 18.5065L45.955 18.507C45.9451 18.5188 45.9621 18.5225 45.9677 18.5278C45.9705 18.5269 45.9736 18.5288 45.9738 18.5317L46.0752 18.707C46.1616 18.8516 46.2229 19.0092 46.2594 19.1732C46.3115 19.3331 46.3402 19.5008 46.3444 19.669C46.3812 20.3588 46.1467 21.0358 45.6908 21.5527C45.3034 21.9945 44.8815 22.3465 44.524 22.6959C44.385 22.8216 44.2682 22.9696 44.1783 23.1342C44.1283 23.2552 44.1224 23.3901 44.162 23.5145C44.2187 23.7367 44.2988 23.9533 44.3998 24.1586L44.5809 24.5112C44.686 24.0387 44.8714 23.5871 45.1294 23.1782C46.1517 21.6756 47.8927 20.8326 49.6998 20.9659C53.6158 21.38 56.6175 25.2841 57.9046 28.7776C58.9621 31.6468 59.3479 34.8009 60.0108 37.7787C60.6634 40.3195 60.5076 43.0004 59.5663 45.4466C58.3242 48.5602 56.5087 51.3874 55.2367 54.4822C54.3304 56.6743 53.9178 59.4093 52.6922 61.4599C53.7492 62.6134 54.3214 64.1323 54.2904 65.6987C54.294 65.7583 54.2926 65.819 54.2846 65.8781C54.7085 66.7291 54.925 67.6693 54.9158 68.6214C54.735 70.4423 54.3551 72.2378 53.7828 73.9751C53.3392 75.7219 53.1572 77.5116 52.7634 79.2717C52.2305 82.0534 51.147 84.6986 49.5766 87.0508C50.1346 87.4794 50.6183 87.9734 51.1727 88.4191C51.7373 88.7792 52.1725 89.3103 52.416 89.935C52.7041 91.1713 52.3044 92.3574 50.9186 92.5153C50.8611 92.5224 50.8012 92.5187 50.7447 92.5031C50.7436 92.8317 50.6473 93.1524 50.4686 93.4261C50.3884 93.5424 50.2896 93.6442 50.1761 93.7276L50.0838 93.7785L50.058 93.7917L50.0173 93.8163C49.9869 93.835 49.9566 93.8543 49.9002 93.892C49.764 93.9817 49.6075 94.038 49.4454 94.0547C49.3142 94.0666 49.183 94.0442 49.0629 93.9902C49.0542 94.0238 49.053 94.0611 49.0442 94.0947C49.0005 94.3153 48.9123 94.5257 48.7849 94.711L48.6372 94.8871L48.573 94.9524L48.558 94.9647L48.5181 94.99L48.4467 95.0391L48.298 95.1269C48.1961 95.1845 48.0838 95.2225 47.9673 95.2368C47.8605 95.2627 47.7502 95.264 47.6423 95.2425C47.2905 95.2053 46.9762 95.0035 46.794 94.6977C46.7655 94.6534 46.7398 94.6067 46.7175 94.5582C45.853 96.2342 44.3863 97.5175 42.6143 98.1471C42.5965 98.1771 42.5779 98.2064 42.557 98.2338C42.3361 98.4723 42.0977 98.6933 41.8432 98.8953C41.6086 99.0664 41.2973 99.0884 41.041 98.9525C40.9593 99.0522 40.8676 99.1432 40.7677 99.2247C40.5306 99.4274 40.2264 99.5321 39.9159 99.5191C39.8185 99.5186 39.722 99.4947 39.6347 99.4503C39.5426 99.4179 39.4557 99.3698 39.3785 99.3085L39.378 99.3027L39.373 99.3031L39.2922 99.3699L39.2807 99.3708L39.2703 99.3776L39.2446 99.3907L39.1926 99.4112C39.1193 99.4386 39.0407 99.462 38.962 99.4848C38.899 99.496 38.85 99.5002 38.7865 99.5056C38.6596 99.5251 38.5326 99.5264 38.4055 99.5102C38.2901 99.5032 38.1755 99.4881 38.0623 99.4642L38.051 99.4593L38.0395 99.4603L37.9733 99.4338L37.9452 99.4201L37.8941 99.3916L37.7877 99.3364C37.72 99.3005 37.6572 99.254 37.6032 99.1995C37.5178 99.1345 37.4408 99.0585 37.3741 98.9736C37.251 99.1243 37.086 99.2347 36.9004 99.2899C36.7953 99.3178 36.6876 99.3328 36.5786 99.3333C36.4559 99.3255 36.3339 99.3088 36.214 99.2825L36.0916 99.2447L36.0589 99.2358L36.0469 99.2317L36.0028 99.2085L35.9798 99.1944L35.889 99.1422C35.7477 99.0703 35.6267 98.963 35.5378 98.8311C35.4807 98.7411 35.436 98.6427 35.4055 98.5401C35.1905 98.6431 34.9591 98.7066 34.7219 98.7282C34.4877 98.7422 34.2526 98.7104 34.0304 98.6351C33.9025 98.5919 33.7811 98.5314 33.67 98.4547C33.568 98.3751 33.472 98.2876 33.384 98.1929C33.1006 97.8249 32.9384 97.3773 32.9206 96.9123C32.9049 96.7355 32.9058 96.558 32.9234 96.3813C32.9328 96.3031 32.9501 96.2249 32.9735 96.15C32.7697 96.068 32.6155 95.8949 32.5575 95.6823C31.8253 93.4615 33.4159 91.7909 35.4086 91.2856C35.1353 90.1561 34.9382 89.0084 34.8203 87.8516C32.4459 84.7374 31.6985 81.3885 30.5033 77.7791C28.1315 77.2338 24.7355 76.1004 23.9649 73.6068C23.6691 73.4859 23.4237 73.2659 23.2712 72.9839C22.8087 71.8507 22.5706 70.6385 22.5689 69.4135C22.4024 69.3956 22.2473 69.3226 22.1262 69.2059C16.1674 63.6971 9.65487 58.5056 5.7359 51.2191C3.14005 46.5175 2.48294 40.9816 3.90377 35.8014C4.80601 32.0575 6.34461 26.4575 10.4768 25.1163C12.2473 24.5438 14.2038 25.4595 15.4904 26.6649C18.0107 29.0256 18.9003 32.9036 22.5868 33.727C22.6031 33.7307 22.6206 33.7394 22.637 33.7439C23.2534 33.0819 23.9461 32.4966 24.7009 32.0002C24.6239 31.914 24.5466 31.8345 24.4696 31.749C23.6636 32.1293 22.7478 32.2013 21.8926 31.9513C20.9271 31.6347 20.0809 31.0291 19.4668 30.2154C18.8988 29.4978 18.5352 28.6387 18.4158 27.7305C18.4075 27.5041 18.3842 27.29 18.3921 27.0667C18.4079 26.8426 18.4355 26.6205 18.4749 26.3996C18.593 25.9523 18.7369 25.6531 18.8039 25.3985C18.9284 24.8973 18.8526 24.7664 18.4388 24.2657C18.2028 24.0098 18.0046 23.7208 17.8493 23.4076C17.798 23.2484 17.741 23.0897 17.6857 22.9353C17.6304 22.7808 17.6217 22.6268 17.5875 22.4727C17.4439 21.6804 17.5757 20.8631 17.9603 20.158C17.5 19.6905 17.1922 19.0946 17.0769 18.448C16.9506 17.8769 16.9009 17.2919 16.929 16.7077C16.9461 16.1747 17.0297 15.6456 17.1772 15.1329C17.2556 14.8759 17.3609 14.6274 17.4914 14.3929C17.6264 14.1522 17.799 13.9353 18.0019 13.7494C18.3344 13.4656 18.7037 13.2283 19.0992 13.0443C19.3543 12.9255 19.5951 12.7759 19.8147 12.5988C20.1124 12.3062 20.2702 11.8986 20.2478 11.4807C20.2488 11.4324 20.2509 11.3891 20.2507 11.3351C20.1027 10.9783 20.0144 10.5981 19.9888 10.2119C19.9637 9.77086 19.9864 9.32868 20.0546 8.89214C20.1142 8.48992 20.2083 8.09279 20.3352 7.70598C20.3937 7.51411 20.468 7.3282 20.5582 7.14969C20.6378 6.95821 20.7401 6.7772 20.8625 6.61056C21.2818 6.00473 21.8256 5.49709 22.4585 5.12205C22.9807 4.79658 23.5403 4.53437 24.1248 4.34158C25.0639 4.02375 26.044 3.84406 27.0348 3.80804C27.346 3.80276 27.6327 3.81709 27.909 3.83668C27.9134 3.82024 27.912 3.80357 27.9159 3.78133C28.0641 3.09779 28.5896 2.56176 29.2676 2.40265C30.9531 2.07905 32.6975 2.26736 34.2771 2.94495C35.3822 3.34017 36.4296 3.88412 37.3908 4.56089C37.98 4.97076 38.5019 5.47032 38.9384 6.04138C39.1938 6.38838 39.3853 6.77874 39.5042 7.19429C39.5379 7.30896 39.5602 7.42607 39.5718 7.54482C39.5894 7.6667 39.5947 7.78891 39.587 7.9115C39.5828 8.06736 39.5688 8.03132 39.5635 8.03689ZM42.1468 29.498C41.7671 29.6376 41.3557 29.6689 40.9594 29.5873C40.8119 29.9203 40.647 30.2453 40.466 30.5608C40.6694 30.5435 40.8704 30.5323 41.0776 30.5249C41.427 30.1922 41.7898 29.8532 42.1468 29.498ZM57.0139 47.2386C58.29 44.5763 59.1949 42.001 58.6237 39.0066C58.1313 36.4361 57.6441 33.7558 56.9723 31.2277C56.1333 28.0581 53.7178 23.0163 49.9636 22.617C46.5799 22.26 46.5526 25.033 45.5834 27.3815C45.0261 28.6284 44.2225 29.7466 43.2201 30.6706C44.5813 30.8908 45.8626 31.4601 46.9406 32.3234C47.0426 32.2673 47.1363 32.198 47.2194 32.1157C47.5943 31.7655 47.7982 31.2678 47.7763 30.7535L47.7281 29.9304L48.5469 30.136C48.9735 30.2575 49.3872 30.4238 49.7791 30.6329C50.4184 30.9407 51.6052 31.8517 51.4561 30.5334C51.4196 30.2328 51.3891 29.9332 51.3535 29.6427L51.195 28.2821L52.4028 28.9366C52.7441 29.1237 53.0101 29.3121 53.2542 29.4585C53.4087 29.5666 53.5785 29.65 53.7589 29.7033C53.7769 29.6842 53.7895 29.6612 53.796 29.6351C53.835 29.5559 53.8679 29.4735 53.8942 29.3888C53.9149 29.2571 53.9596 29.0905 53.9676 28.9876C53.9549 28.9069 53.9764 28.835 53.9691 28.7494C53.9591 28.6576 53.9442 28.5668 53.9242 28.4773C53.8742 28.2997 53.7925 28.1329 53.6825 27.9846C53.4464 27.6761 53.16 27.4091 52.8353 27.1958C52.2981 26.8676 51.7414 26.574 51.1673 26.3154C50.7517 26.1179 50.5252 25.975 50.5431 25.8779C50.5617 25.7807 50.8331 25.751 51.3106 25.7966C51.9994 25.8665 52.6729 26.0465 53.3052 26.3301C53.7863 26.5462 54.2195 26.8569 54.5787 27.2447C55.0546 27.7664 55.2981 28.4612 55.2528 29.1675C55.2408 29.3415 55.2186 29.4573 55.1992 29.6042C55.1651 29.8021 55.109 29.9959 55.0325 30.1813C54.9437 30.4188 54.7968 30.6306 54.6053 30.7966C54.4823 30.9049 54.3397 30.9885 54.1853 31.0433C54.0374 31.0894 53.8822 31.1099 53.7276 31.1033C53.4437 31.0881 53.1664 31.0138 52.9122 30.8865C52.9139 31.017 52.9047 31.1485 52.8859 31.2778C52.8566 31.4621 52.8007 31.6421 52.7213 31.8109C52.6202 32.0232 52.4696 32.2083 52.2834 32.3512C52.2544 32.3777 52.2215 32.401 52.1867 32.4193L52.1157 32.464L52.0181 32.5205C52.0073 32.5221 51.9966 32.5245 51.9861 32.5283L51.9495 32.5424L51.8705 32.5702L51.7177 32.6102C51.5399 32.6465 51.3575 32.6547 51.1764 32.6351C50.8962 32.6041 50.6221 32.5325 50.3622 32.4232C49.9488 32.2517 49.5481 32.0507 49.1639 31.8213C49.057 31.7603 48.9493 31.6986 48.8422 31.6434C48.6293 32.2325 48.215 32.7255 47.674 33.0357C48.2058 33.7199 48.5758 34.5171 48.7548 35.3671L48.8929 34.3332L49.7824 35.1665C50.0196 35.3932 50.2448 35.6325 50.4565 35.8831C50.7652 36.2249 51.153 36.8636 51.6096 36.467C51.8948 36.2157 51.9255 35.6882 52.0696 35.3569L52.4984 34.3852L53.2194 35.1416C53.5919 35.5319 53.8447 35.8572 54.1213 36.1279C54.2746 36.2989 54.4627 36.4355 54.6719 36.5294C54.6616 36.5361 54.6411 36.543 54.6362 36.5536C54.6313 36.565 54.648 36.5643 54.6737 36.5504L54.7363 36.5181C54.7419 36.5235 54.7775 36.4985 54.8079 36.4799C54.883 36.4063 54.9438 36.3179 54.9848 36.2195C55.0892 35.969 55.159 35.7046 55.1934 35.4345C55.3372 34.3395 55.2756 33.6147 55.4601 33.572C55.619 33.5263 56.019 34.1903 56.1327 35.4677C56.1626 35.8456 56.1295 36.2244 56.0341 36.5902C55.9661 36.8413 55.8473 37.0763 55.6859 37.2798C55.581 37.4041 55.4579 37.5109 55.3199 37.5979L55.2592 37.6359C55.226 37.6555 55.1919 37.673 55.1561 37.6877C54.7323 37.8632 54.2505 37.8275 53.8556 37.5924C53.6225 37.4654 53.4041 37.3139 53.2039 37.1389C53.1226 37.0706 53.052 37.0007 52.9763 36.9312C52.9312 37.0328 52.8865 37.1389 52.826 37.2477C52.7193 37.4626 52.5835 37.6603 52.4236 37.8382C52.3076 37.9693 52.1694 38.0781 52.015 38.1599C51.96 38.1879 51.9022 38.2089 51.8424 38.2227L51.7526 38.2523L51.7055 38.2621L51.5872 38.2722C51.5714 38.2735 51.4427 38.2728 51.4427 38.2728C51.3308 38.2633 51.2209 38.2442 51.113 38.2146C51.038 38.1947 50.9651 38.1666 50.896 38.1309C50.7809 38.0764 50.6708 38.0113 50.5671 37.9369C50.3992 37.8161 50.2416 37.6806 50.0969 37.533C49.8562 37.2826 49.631 37.0177 49.4215 36.7413C49.4194 36.7334 49.4144 36.7258 49.4081 36.7205C49.2856 36.8083 49.1412 36.8622 48.9913 36.8757C49.0807 38.4327 49.0312 39.9949 48.8431 41.5425C48.4988 45.082 48.0306 48.6328 47.4668 52.1537C47.6218 52.5238 47.7557 52.903 47.8802 53.2816C47.8826 52.9945 47.8914 52.7127 47.9148 52.4245C47.9711 51.7538 48.1066 51.0918 48.3168 50.4527C48.5048 49.8877 48.7259 49.3345 48.9779 48.7954C49.441 47.7821 49.8691 46.9295 50.1557 46.1904C50.7473 44.7231 50.7636 43.7105 50.9822 43.692C51.0781 43.6838 51.1967 43.9336 51.2704 44.4246C51.3443 45.1148 51.2982 45.8123 51.1339 46.4863C50.8962 47.4505 50.5858 48.3961 50.2061 49.3132C50.0239 49.8193 49.8194 50.3361 49.6717 50.8728C49.5149 51.4118 49.4086 51.9648 49.3544 52.5235C49.2825 53.6613 49.3026 54.8029 49.4128 55.9376C49.4335 56.0439 49.4422 56.1461 49.4556 56.253C49.5145 55.9888 49.5833 55.7289 49.6467 55.4584C49.729 55.1441 49.8305 54.8346 49.9501 54.5324L50.0331 54.3034L50.0773 54.1909L50.1116 54.0909L50.1395 54.0345C50.2084 53.8877 50.2769 53.7359 50.3377 53.5796C51.4383 51.144 52.4994 49.0619 53.1081 47.48C53.7247 45.9404 54.0103 44.8553 54.2297 44.9067C54.3958 44.9466 54.4862 46.01 54.0872 47.7859C53.4786 49.9848 52.6673 52.123 51.6637 54.17C51.601 54.3213 51.5328 54.468 51.4647 54.6147L51.4425 54.6706L51.4381 54.6871L51.3944 54.8047L51.3109 55.0279C51.1928 55.3132 51.0912 55.6051 51.009 55.9027C50.9412 56.1734 50.8551 56.4348 50.7912 56.7002C50.7501 56.9687 50.7083 57.2373 50.6706 57.4945C50.6432 57.7444 50.6341 57.997 50.6425 58.2489C50.6374 58.3691 50.749 58.4852 50.7481 58.6028L50.7428 58.6084L50.6935 58.6615L50.6808 58.7596L50.6864 58.9541C50.7076 59.1516 50.7532 59.3463 50.822 59.5325C50.8958 59.708 50.9787 59.8798 51.0706 60.0465C51.1758 60.2157 51.2866 60.3742 51.3966 60.532C51.7906 59.518 52.1194 58.4797 52.3812 57.4235C52.8157 56.2024 53.2723 54.9838 53.7809 53.7885C54.7367 51.5375 55.9581 49.4418 57.0139 47.2386ZM50.9541 62.4393C51.2814 62.5802 51.5921 62.7567 51.8809 62.9665C51.4783 62.4101 50.8681 62.0422 50.1902 61.9472C48.6236 61.773 47.0385 61.9114 45.5259 62.3546C45.3747 62.8581 45.2037 63.3501 45.0154 63.8268C46.9112 62.8158 49.0432 61.6227 50.9541 62.4393ZM46.7095 46.0753C47.0791 42.8249 48.275 38.331 46.989 35.1761C45.7162 32.0383 41.8957 31.8001 39.035 32.4003L38.9925 32.4039C38.8482 32.6213 38.6857 32.8461 38.5059 33.0724C37.6852 34.1862 36.8574 34.9596 36.6615 34.8091C36.4656 34.6578 36.9386 33.6933 37.7146 32.6264C37.4003 32.7152 37.0765 32.7683 36.7509 32.7843C36.2137 32.7372 35.8703 32.6204 35.8502 32.444C35.8302 32.2675 36.13 32.0683 36.6314 31.8913C37.1573 31.659 37.6488 31.3558 38.0952 30.993C38.3559 30.735 38.6 30.4617 38.8276 30.1736C41.1899 26.2398 40.3001 21.6532 39.8744 17.2155C39.5922 14.2206 36.4417 12.7362 33.7214 13.5347C32.356 13.9318 31.2152 13.3045 29.8729 13.4785C29.7952 13.5136 29.7106 13.5354 29.6255 13.5426C24.8116 14.0336 23.9163 16.6729 23.5864 20.8932C23.5785 21.0574 23.614 21.2179 23.6079 21.3345C23.6018 21.4511 23.5756 21.5271 23.5195 21.5589C23.4633 21.5907 23.3843 21.5587 23.2921 21.4913C23.1606 21.3967 23.0583 21.2703 22.9927 21.1225C22.942 21.0298 22.8941 20.9199 22.8411 20.8003C22.8048 20.6895 22.7681 20.5736 22.7362 20.4464C22.7286 20.4258 22.7264 20.399 22.7195 20.3777C22.2815 21.0538 21.9806 22.0693 22.6227 22.4097C22.9225 22.5616 23.0926 22.8874 23.047 23.222C23.1557 24.7489 23.0831 26.4327 23.6942 27.8622C24.1771 28.9192 24.8479 29.8799 25.6735 30.696C25.7078 30.7142 25.7468 30.7379 25.7811 30.7569C25.8879 30.7902 25.9864 30.8475 26.0697 30.9215C26.1151 30.9505 26.1556 30.9741 26.206 31.0026C26.8619 31.3689 27.5477 31.6778 28.2562 31.9264C28.761 32.1215 29.1947 32.1985 29.2102 32.3812C29.224 32.5436 28.8795 32.7984 28.1381 32.8191C27.4993 32.8245 26.8652 32.6973 26.2765 32.4466C26.2774 32.4575 26.273 32.4739 26.2744 32.4899L26.2645 32.5016C26.2817 32.7645 26.1445 33.0134 25.9124 33.1368C23.0725 34.7172 21.2392 37.6517 21.0554 40.909C20.7753 44.7153 21.9423 48.4885 24.321 51.4659C25.4864 53.0227 26.6864 54.5357 27.9983 55.9683C28.697 56.5989 29.2524 57.3723 29.6281 58.2369C30.7265 61.288 32.5034 64.0472 34.8223 66.3045C35.3095 65.0709 36.2051 64.0434 37.3582 63.3957C37.4132 63.3677 37.4701 63.3446 37.5296 63.3264C37.5443 63.2434 37.5698 63.1667 37.5839 63.0765C37.609 62.9276 37.633 62.7744 37.658 62.6153C37.6613 62.5939 37.6648 62.5666 37.6676 62.5393C37.6714 62.0542 37.6251 61.5704 37.5288 61.0953C37.2424 59.7515 36.8193 58.4405 36.2643 57.1844C36.1107 56.8295 35.9453 56.4646 35.7668 56.1177L35.6315 55.8583L35.4749 55.6066C35.3735 55.4298 35.261 55.2605 35.1362 55.1002C35.051 54.9775 34.9523 54.8508 34.8463 54.7241L34.7488 54.7813L34.6298 54.4504C34.2177 53.978 33.8334 53.4814 33.4798 52.9631C33.1982 52.5301 32.9787 52.0588 32.8283 51.5634C32.6837 51.1267 32.5722 50.704 32.4446 50.2877C32.187 49.4715 31.925 48.7308 31.6202 47.9997C31.4764 47.633 31.3226 47.2839 31.1653 46.9461C31.0911 46.7743 31.0173 46.6068 30.9443 46.44L30.8383 46.211L30.7217 45.9756C30.4037 45.3368 30.1115 44.7454 29.8448 44.2052C28.8002 42.0438 27.9857 40.8201 28.1461 40.6823C28.2653 40.5634 29.3956 41.6391 30.6833 43.7287C31.0121 44.2469 31.3512 44.8167 31.7107 45.4315L31.8432 45.6656L31.9843 45.9244C32.0682 46.0904 32.1583 46.2616 32.2433 46.4325C32.4273 46.7687 32.6031 47.1269 32.7694 47.5026C33.0592 48.1168 33.3329 48.8068 33.5811 49.5056C33.7173 49.4071 33.8613 49.3139 34.0141 49.2235L34.0133 49.2221C34.7321 48.85 35.5312 48.6616 36.34 48.6724C36.9319 48.671 37.2986 48.737 37.32 48.86C37.342 48.9822 36.9942 49.1468 36.4369 49.3081C35.7518 49.4708 35.0856 49.7092 34.4522 50.0178C34.2469 50.1324 34.0531 50.2627 33.8704 50.3863C33.9461 50.6449 34.0281 50.9088 34.1197 51.1653C34.212 51.448 34.334 51.7216 34.4845 51.9783C35.0927 51.7835 35.7226 51.6649 36.3599 51.6246C36.9599 51.5897 37.3362 51.6234 37.359 51.7295C37.3818 51.8356 37.0498 52.015 36.4797 52.2131C36.0475 52.3251 35.5429 52.5249 34.9777 52.7299C35.1616 52.9793 35.3655 53.2328 35.5751 53.4852C36.7084 53.1435 37.5289 53.2322 37.531 53.378C37.5453 53.5455 36.9203 53.7227 36.0538 54.1096C36.1208 54.1966 36.1814 54.2776 36.2426 54.3644C36.3745 54.5489 36.4946 54.7401 36.6031 54.939L36.7789 55.238L36.9284 55.5443C37.1186 55.9443 37.2755 56.3376 37.4271 56.7197C37.6642 57.3552 37.871 58.0013 38.0437 58.6575C38.0491 58.5927 38.0603 58.5363 38.0664 58.4715C38.2947 56.7211 38.6326 54.816 38.768 52.8626C38.7857 52.3705 38.8441 51.9201 38.817 51.4136C38.8122 51.1687 38.8081 50.9237 38.8032 50.6788L38.8028 50.4949L38.7901 50.3448L38.7648 49.979C38.7299 49.5001 38.6953 49.0328 38.6817 48.5573C38.6682 48.0817 38.6419 47.6356 38.656 47.1694C38.6701 46.7031 38.6587 46.2441 38.7145 45.84C38.7353 45.6324 38.755 45.4277 38.7759 45.2288L38.8099 44.9281L38.8242 44.7808C38.8324 44.6889 38.8471 44.665 38.8522 44.6054C38.9917 43.8452 39.2289 43.1066 39.5597 42.4082C40.1596 41.1672 40.7467 40.2791 41.0687 39.6407C41.412 38.9953 41.599 38.6056 41.6942 38.6406C41.7725 38.6727 41.765 39.0894 41.5632 39.8257C41.3697 40.5832 40.8983 41.576 40.4473 42.7824C40.2123 43.4193 40.0527 44.0805 39.9691 44.7549C39.9636 44.7926 39.9596 44.8309 39.9577 44.869L39.9488 45.0209L39.9365 45.3199C39.9267 45.5207 39.9176 45.7303 39.9073 45.9341C39.8866 46.3484 39.8885 46.7637 39.9106 47.1779C39.9076 47.587 39.9457 48.035 39.979 48.487C40.0116 48.9391 40.0458 49.4005 40.0922 49.8784L40.1411 50.4532L40.1451 50.6369C40.1549 50.8813 40.1598 51.1262 40.1646 51.3711C40.1948 51.8548 40.1446 52.4008 40.1259 52.9324C39.9491 54.8529 39.6748 56.7621 39.3038 58.6539C39.1563 59.5163 39.0107 60.3339 38.9198 61.0937C38.8932 61.285 38.8655 61.4714 38.8435 61.6572L38.8232 61.7947L38.7992 61.9647L38.7523 62.2337C38.5023 63.591 37.6 64.4459 36.9168 65.5861C36.6139 66.074 36.3737 66.5989 36.2017 67.148C36.1044 67.4556 36.0768 67.7813 36.12 68.1011C36.1497 68.2621 36.4661 68.7536 36.4427 68.8636C36.4725 68.71 36.5144 68.5706 36.5558 68.416C36.6979 67.9936 36.9075 67.5968 37.1775 67.2432C37.3248 67.0452 37.491 66.8632 37.6745 66.6979C37.7869 66.6182 37.8982 66.5431 38.0099 66.4635L38.0501 66.433C38.0706 66.4262 38.1332 66.3931 38.1332 66.3931L38.1537 66.3863L38.2377 66.3572L38.3952 66.2957C39.045 66.0864 39.7554 66.3071 40.1755 66.8481C40.5047 67.2772 40.614 67.8366 40.4703 68.3592C40.5133 68.3607 40.5515 68.3574 40.6057 68.363C40.861 68.418 41.0773 68.5865 41.1932 68.822C41.2815 69.0057 41.3157 69.2116 41.2923 69.4144C41.2818 69.4795 41.2707 69.5455 41.2599 69.6062L41.4256 69.4622C41.6068 69.3117 41.7328 69.247 41.7819 69.2866C41.831 69.3255 41.8027 69.463 41.7075 69.6763C41.6496 69.806 41.5848 69.9327 41.5139 70.0556C41.4118 70.1883 41.2857 70.3451 41.146 70.5139C40.8626 70.8461 40.518 71.1682 40.2237 71.5604L40.1109 71.6949C40.0756 71.7409 40.0456 71.7902 40.0218 71.8433C39.9862 71.9282 39.961 72.0172 39.947 72.1089C39.9338 72.175 39.936 72.2434 39.9531 72.3084C39.9703 72.323 39.9485 72.3146 39.9779 72.3443C40.0306 72.3997 40.1019 72.4695 40.0934 72.4374C40.2345 72.4823 40.3883 72.4634 40.5139 72.3848C40.7343 72.2851 40.9407 72.158 41.1282 72.0056C41.319 71.8484 41.4993 71.6871 41.6629 71.5264L41.7232 71.4673L41.7539 71.4435L41.7543 71.4486L41.7735 71.4258C41.8078 71.3849 41.866 71.3099 41.866 71.3099C41.9334 71.2224 42.0138 71.1338 42.0599 71.0605C42.1059 70.9872 42.1687 70.8877 42.2209 70.8015C42.2532 70.7286 42.2832 70.6451 42.3228 70.5475C42.3583 70.4598 42.399 70.3746 42.4464 70.2917C42.5163 70.166 42.6162 70.059 42.7366 69.9801C42.9224 69.8665 43.1512 69.8492 43.3524 69.9336C43.4882 69.9936 43.6079 70.0849 43.7006 70.2019C43.7391 70.2358 43.7717 70.2776 43.796 70.3237C43.8409 70.3907 43.8796 70.4612 43.912 70.5351C43.9589 70.6501 43.9888 70.7717 44.0008 70.8955C44.0394 71.3244 43.9765 71.7554 43.8173 72.1552C43.7528 72.3454 43.6748 72.5309 43.5847 72.7101C43.5383 72.7958 43.4918 72.8815 43.4439 72.9674L43.42 73.0023C43.4467 73 43.4681 73.004 43.4955 73.0017C43.5131 72.9951 43.5289 72.985 43.5408 72.9708C43.7727 72.7584 43.9539 72.4977 44.0736 72.2057C44.2504 71.8234 44.3615 71.4131 44.4014 70.9936C44.5058 69.5297 44.1521 68.0688 43.3896 66.8165C42.3345 64.8561 43.4476 63.6694 43.9976 61.7557C44.4992 59.7857 44.8999 57.7905 45.1983 55.7793C45.7832 52.5844 46.3398 49.3133 46.7095 46.0753ZM44.8773 17.5546C44.881 17.4951 44.8744 17.4344 44.8579 17.3774C44.8161 17.2356 44.753 17.1008 44.672 16.977C44.5727 16.8248 44.4616 16.6802 44.3396 16.5446C44.214 16.3917 44.0686 16.2274 43.925 16.0337L43.8064 15.8438C43.7618 15.7716 43.7262 15.6951 43.7005 15.6148C43.6412 15.4468 43.6152 15.2694 43.624 15.0912C43.6299 14.9725 43.6431 14.8538 43.6643 14.7366L43.7046 14.458C43.732 14.2768 43.7557 14.1017 43.7786 13.9267C43.8156 13.6535 43.8022 13.3757 43.7401 13.1065C43.6746 12.8748 43.5569 12.6614 43.3971 12.4815C43.028 12.1222 42.5863 11.848 42.1017 11.6775C41.6285 11.4856 41.1476 11.3498 40.6991 11.2017C40.2507 11.0536 39.8465 10.9223 39.476 10.8026C38.865 10.6056 38.2713 10.3553 37.703 10.0539C36.8271 9.56105 36.5586 9.1889 36.6069 9.12491C36.6742 9.02793 37.0458 9.22852 37.9343 9.53702C38.3773 9.68846 38.9616 9.84468 39.7034 10.0248C40.0828 10.1122 40.4937 10.2029 40.9441 10.3143C41.1254 10.3529 41.3172 10.3964 41.5102 10.445C41.4951 10.3696 41.4594 10.2997 41.4066 10.2428C41.1989 10.0561 40.9519 9.91936 40.6833 9.84364C40.3619 9.73005 39.9993 9.6426 39.619 9.54497L39.3326 9.46637L39.1724 9.41063C39.0869 9.38724 39.0031 9.35859 38.921 9.32395C38.5916 9.18403 38.2659 9.02773 37.967 8.86916C38.011 8.68654 38.0594 8.50428 38.1035 8.32167L38.1722 8.04496L38.1804 7.89314C38.1858 7.83719 38.1826 7.78198 38.1721 7.72666C38.1665 7.66946 38.1558 7.61196 38.1409 7.55628C38.0681 7.30693 37.9536 7.07135 37.8021 6.86083C37.4566 6.40322 37.0467 5.99929 36.5863 5.6595C35.734 5.0347 34.8075 4.51916 33.8282 4.12567C32.4914 3.49169 31.0153 3.21122 29.5411 3.31172C29.5263 3.31808 29.5157 3.32993 29.5003 3.33635C29.389 3.41152 29.2407 3.50444 29.099 3.61577C29.0312 3.66388 28.9707 3.72159 28.9197 3.78798C28.9695 3.81879 29.0226 3.84494 29.0774 3.86584C29.1871 3.91711 29.3023 3.95623 29.4209 3.98339C29.7084 4.05825 30.0007 4.11298 30.2964 4.14697C30.6117 4.19026 30.9372 4.21662 31.2879 4.23062C32.462 4.26661 33.6087 4.59624 34.6241 5.19111C35.1698 5.51708 35.6545 5.93729 36.054 6.43265C36.3237 6.76821 36.5313 7.15065 36.667 7.55964C36.7338 7.84015 36.748 8.00761 36.6913 8.0336C36.634 8.05964 36.5207 7.94005 36.346 7.70593C36.1116 7.409 35.8547 7.13076 35.5799 6.87158C34.7367 6.12264 33.7207 5.59717 32.6239 5.34216C32.8979 5.52256 33.1538 5.72934 33.3876 5.95914C33.8726 6.45964 34.2663 7.04091 34.5507 7.67747C34.6933 8.02091 34.9104 8.32807 35.1872 8.57615C35.3491 8.66898 35.5386 8.70106 35.7215 8.6658C35.8644 8.63759 35.9512 8.64117 35.9815 8.68167C36.0118 8.72144 35.9757 8.80189 35.8466 8.93186C35.6009 9.136 35.2685 9.19858 34.9664 9.09794C34.5035 8.89052 34.1158 8.54309 33.8591 8.10424C33.6941 7.87295 33.5384 7.62261 33.358 7.4058C33.1581 7.15703 32.9352 6.92775 32.6918 6.72212C32.0838 6.21017 31.3556 5.86468 30.5774 5.71692C30.1146 5.62265 29.6408 5.60452 29.1729 5.66255C28.6594 5.71568 28.1632 5.8776 27.7175 6.13816C27.2122 6.41619 26.7981 6.83469 26.5239 7.3435C26.2497 7.85232 26.1273 8.42999 26.1713 9.0074C26.1956 9.15647 26.2321 9.30304 26.2784 9.44657C26.3379 9.58242 26.4084 9.71077 26.4794 9.84564C26.6575 10.1116 26.8889 10.338 27.1597 10.5077C27.4557 10.6994 27.8285 10.8458 28.2906 11.0774C28.7143 11.2933 29.0919 11.5897 29.403 11.951C29.4713 11.9174 29.5435 11.8952 29.6181 11.8838C30.0335 11.7798 30.4656 11.7599 30.8888 11.8247C30.8522 11.7789 30.8157 11.7338 30.781 11.6929C30.6234 11.4114 30.3867 11.1825 30.1003 11.036C29.4799 10.7617 28.5095 10.4302 28.1188 9.56905C27.9143 9.19802 27.833 8.77127 27.8859 8.35061C27.9031 7.92935 28.0577 7.52562 28.3259 7.20203C28.6062 6.90221 28.9964 6.73181 29.4053 6.73136C29.7232 6.7277 30.0395 6.77383 30.3432 6.86774C31.1753 7.13577 31.9646 7.52426 32.6859 8.02073C33.1932 8.35652 33.4534 8.57169 33.4259 8.62368C33.3976 8.675 33.0713 8.57204 32.5243 8.33234C31.7759 7.98053 30.9965 7.69927 30.1963 7.4913C29.7195 7.38581 29.1288 7.37615 28.9115 7.69177C28.6663 8.15651 28.6532 8.71176 28.876 9.18855C29.0165 9.43944 29.2264 9.64356 29.481 9.77596C29.6223 9.8574 29.7706 9.92657 29.9237 9.98365C30.1023 10.0597 30.2868 10.1368 30.4651 10.2085L30.7868 10.3863C30.8838 10.4598 30.9885 10.5371 31.0806 10.6212C31.2338 10.782 31.3761 10.9517 31.5068 11.1311C31.6956 11.4115 31.9458 11.6457 32.2377 11.8151C32.3869 11.8864 32.5415 11.9456 32.6995 11.992C33.0507 11.9614 33.3998 11.9062 33.7433 11.8281C33.6821 11.8004 33.6152 11.7733 33.5534 11.7471C32.9362 11.4776 32.3387 11.1655 31.7651 10.8113C31.4867 10.6378 31.2301 10.4304 31.0015 10.1943C30.7951 9.97967 30.346 9.3206 30.5569 9.01503C30.8763 8.53304 32.111 8.87198 32.5106 9.07602C32.8707 9.26225 33.2129 9.48431 33.5307 9.73619C34.0379 10.1311 34.3243 10.3287 34.2972 10.3953C34.2702 10.4618 33.9122 10.3528 33.3368 10.0447C32.8465 9.7885 31.974 9.32752 31.4177 9.48285C31.4709 9.79227 31.9046 10.0139 32.1591 10.1616C32.7176 10.4675 33.2934 10.7383 33.8858 10.972C34.2039 11.1085 34.52 11.2203 34.885 11.3952C34.9396 11.4212 34.9922 11.4511 35.043 11.4847L35.1 11.5229L35.1125 11.5328C35.4236 11.5006 35.7385 11.5212 36.0432 11.5939C35.8512 11.4116 35.6893 11.1991 35.564 10.9644C35.4788 10.7906 35.4279 10.6022 35.4144 10.4091C35.4039 10.2859 35.4143 10.22 35.4459 10.2071C35.4774 10.1935 35.5247 10.2545 35.5881 10.3586C35.6653 10.5068 35.7599 10.6448 35.8681 10.7728C36.2754 11.223 36.7863 11.5665 37.3566 11.7728C38.2349 12.0968 39.1414 12.3344 40.065 12.4837C40.1966 12.5105 40.3328 12.531 40.4701 12.5573C40.6075 12.5836 40.7556 12.6258 40.8989 12.6618C41.207 12.7488 41.5075 12.8649 41.795 13.0076C42.4628 13.2918 43.0045 13.8109 43.3183 14.4683C43.5057 14.9379 43.5016 15.4624 43.3065 15.928C43.2002 16.1896 43.0516 16.433 42.8671 16.6465C43.155 16.9484 43.3588 17.3209 43.4595 17.7271C43.561 18.255 43.4629 18.8022 43.1829 19.2597C42.7141 20.0179 42.2701 20.5543 42.013 21.0682C41.9363 21.2084 41.8732 21.3546 41.8236 21.5063C42.0257 22.62 42.1074 23.7521 42.0678 24.8835C42.0057 25.9999 41.8083 27.1046 41.4807 28.1728C41.545 28.1607 41.6083 28.1444 41.6705 28.1238C41.9168 28.0298 42.1502 27.9049 42.3653 27.7515C42.8092 27.4531 43.1998 27.0819 43.5207 26.6531C43.6183 26.5104 43.6647 26.3386 43.6522 26.1659C43.6372 25.9547 43.5826 25.7483 43.4922 25.5567C43.3626 25.2969 43.2335 25.0428 43.109 24.7833C42.9555 24.4729 42.8389 24.1447 42.7623 23.8067C42.6687 23.381 42.7143 22.9354 42.8919 22.5377C43.0563 22.2156 43.2781 21.9274 43.5468 21.687C43.9699 21.2882 44.3617 20.9577 44.6513 20.6301C44.8708 20.3917 44.9901 20.0771 44.9835 19.752C44.9888 19.6779 44.9767 19.603 44.949 19.5338C44.9393 19.4623 44.9132 19.3944 44.8725 19.3344L44.8263 19.2354L44.7355 19.1248L44.6813 19.0593L44.5735 18.9276L44.3525 18.6696L44.2932 18.6046C44.275 18.5791 44.2516 18.5599 44.2822 18.5354L44.3886 18.4023C44.519 18.2277 44.6654 18.0517 44.795 17.8589C44.8287 17.8115 44.8518 17.7584 44.863 17.702C44.8689 17.6774 44.8756 17.6534 44.8837 17.6294L44.8773 17.5546ZM50.8206 91.3974C52.0286 91.2517 51.1588 89.8647 50.6549 89.449C50.0486 88.9647 49.5254 88.382 48.8988 87.933L48.8843 87.9503C48.5616 90.0512 47.9338 92.0924 47.0201 94.0092C47.1038 94.1051 47.2055 94.1826 47.3192 94.2379C47.5717 94.3362 47.8535 94.3874 48.0195 94.1185L48.0502 94.0341L48.0484 94.0131C48.0532 94.001 48.0568 93.9846 48.061 93.9733C48.0807 93.941 48.0944 93.9055 48.1007 93.8685C48.1109 93.8172 48.1248 93.7671 48.1417 93.7182C48.1475 93.6579 48.1588 93.6029 48.1654 93.5527C48.2005 93.3329 48.2087 93.1051 48.224 92.9089C48.3012 92.0481 48.6647 92.4012 49.1765 92.6279C50.0714 93.0286 49.8206 91.659 49.6243 91.1179C49.5545 90.9289 49.4729 90.7899 49.4248 90.6859C49.3339 90.5739 49.2736 90.4878 49.3006 90.4212C49.3277 90.3547 49.4205 90.3183 49.5836 90.3315C49.8354 90.3969 50.0593 90.5436 50.2212 90.7482C50.3927 90.9614 50.5209 91.2053 50.5999 91.468C50.6669 91.4272 50.7426 91.4033 50.8206 91.3974ZM47.9436 60.2685C47.5174 58.7416 47.2442 57.1689 46.8705 55.6266C46.6046 57.1904 46.3543 58.9209 45.9747 60.6089C46.6246 60.4602 47.2819 60.3466 47.9436 60.2685ZM41.9595 16.3541C42.4226 15.9899 42.6284 15.3854 42.4852 14.812C42.2472 14.3621 41.8646 14.0062 41.399 13.8026C41.1668 13.6851 40.9264 13.5844 40.6797 13.5017C40.5522 13.4636 40.4208 13.4309 40.2927 13.3937C40.1653 13.3563 40.0236 13.3297 39.8928 13.3035L39.7603 13.2659C40.4903 13.7098 41.0128 14.429 41.2108 15.2628C41.5555 16.9762 41.4659 18.7091 41.6771 20.4331C41.9108 19.9423 42.2375 19.4276 42.5161 18.9016C42.6794 18.6008 42.728 18.2499 42.6531 17.9153C42.5262 17.5508 42.2949 17.231 41.9881 16.9979L41.6374 16.7006L41.9595 16.3541ZM43.1287 71.0041C43.1253 70.9555 43.1161 70.9066 43.1006 70.8605C43.0996 70.8496 43.1001 70.8554 43.105 70.8441C43.1163 70.8489 43.104 70.8332 43.0911 70.8182C43.0727 70.8402 43.058 70.8641 43.0495 70.8919C42.9836 71.0062 42.9163 71.1631 42.826 71.3058C42.6593 71.558 42.511 71.7707 42.3496 71.9742C42.1391 72.2586 41.8841 72.5066 41.5947 72.7086C41.444 72.8404 41.2833 72.9592 41.1128 73.0635C41.1624 73.0746 41.2071 73.0876 41.256 73.0995C41.4955 73.131 41.7398 73.1161 41.9737 73.0553C42.0928 73.0211 42.2073 72.9748 42.3172 72.918C42.3489 72.8883 42.3852 72.8633 42.4235 72.8433C42.4765 72.7921 42.5263 72.7367 42.5723 72.6795L42.5868 72.6622L42.6161 72.6218L42.6717 72.5243C42.7088 72.4569 42.7461 72.3829 42.777 72.3102C42.8517 72.1637 42.9165 72.0114 42.9708 71.8557C43.0786 71.5852 43.1317 71.2959 43.1287 71.0041ZM42.6676 75.4589C42.5741 75.4187 42.4913 75.3593 42.4211 75.2856C42.2797 75.1341 42.3444 75.1352 42.1863 75.2413C41.9667 75.3841 41.7656 75.548 41.5587 75.7035C41.2755 75.9357 40.9595 76.1239 40.6212 76.2636C40.9241 77.2877 41.221 78.3116 41.6002 79.3022C41.9603 78.0261 42.3185 76.7363 42.6715 75.4621L42.6676 75.4589ZM41.3387 73.8839C41.2511 73.8702 41.1637 73.8506 41.0813 73.8306C40.999 73.8106 40.9198 73.7684 40.8423 73.737L40.7809 73.7152L40.7361 73.692L40.7138 73.6778L40.6285 73.6311C40.5887 73.6074 40.5509 73.5822 40.5145 73.5546C40.4664 73.5193 40.4216 73.4793 40.3809 73.436C40.3627 73.4105 40.3496 73.3846 40.332 73.365L40.3154 73.3664C40.0562 73.3935 39.7957 73.3288 39.5785 73.1837C39.5218 73.1498 39.469 73.109 39.4228 73.0619C39.5707 73.3311 39.7032 73.6082 39.819 73.8933C39.9283 74.171 40.0294 74.4544 40.1271 74.7323C40.3047 74.634 40.472 74.5161 40.6247 74.3812C40.8529 74.2034 41.0917 74.0385 41.339 73.8875L41.3387 73.8839ZM40.4751 69.3651L40.4721 69.3215C40.2598 69.4214 39.9087 69.6505 39.6065 69.8383C39.2029 70.0639 38.8549 70.3804 38.5917 70.7627C38.4952 70.9352 38.4456 71.1292 38.4465 71.327C38.4494 71.3705 38.4495 71.4136 38.4466 71.4569L38.4847 71.6486C38.486 71.6646 38.4929 71.6859 38.4948 71.7076C38.5974 71.8289 38.6984 71.9495 38.7899 72.0775C38.8538 72.0772 38.9172 72.0616 38.9751 72.034C39.0103 72.0114 39.0438 71.9873 39.0764 71.9605L39.076 71.9554C39.1126 71.7625 39.1825 71.5769 39.2822 71.4071C39.3224 71.3329 39.3717 71.2637 39.4273 71.2005L39.5843 71.0302C39.7126 70.8901 39.8488 70.7573 39.9922 70.6327C40.1394 70.4158 40.2598 70.1821 40.353 69.9369C40.4255 69.7556 40.4666 69.5637 40.4761 69.3687L40.4751 69.3651ZM41.146 80.9925C41.0994 80.949 41.063 80.8966 41.0362 80.8383C40.2974 79.1116 39.6856 77.3326 39.2057 75.5154C38.8102 74.2735 38.1748 73.1222 37.336 72.1261C36.5887 71.18 35.8952 70.1912 35.2595 69.1655C34.979 68.763 34.6568 68.391 34.2985 68.0564C34.1455 67.9059 33.343 66.8833 33.1714 66.8979C31.0978 67.2034 26.5807 66.804 26.1743 69.4989C26.0322 70.4849 26.0224 71.8918 25.4323 72.8029C25.7463 74.8474 28.8483 75.7519 30.7365 76.1813C30.1946 75.3782 29.9224 74.7143 30.0846 74.5874C30.2811 74.4298 31.057 75.1479 31.8208 76.1431C32.5516 77.082 33.1947 77.9471 33.0064 78.1254C32.9123 78.2151 32.5966 78.0901 32.1915 77.7858C33.239 81.0494 33.9782 84.1142 36.1583 86.9588C36.2507 87.0714 36.3074 87.2082 36.3211 87.3531C36.3776 87.4614 36.4116 87.5797 36.4212 87.7016C36.4751 88.438 36.5729 89.17 36.7151 89.8946C37.8014 88.2391 38.9599 86.6309 40.1912 85.0718C40.4586 83.7217 40.7894 82.3575 41.1473 80.9962L41.146 80.9925ZM39.5075 68.0413C39.5037 67.7999 39.395 67.5719 39.2104 67.4175C39.1601 67.3896 39.1134 67.344 39.0573 67.3166L38.9733 67.2858L38.9284 67.2626L38.9171 67.2577C38.8256 67.2494 38.7317 67.2304 38.6508 67.2263C38.6211 67.2449 38.5865 67.2566 38.551 67.2574C38.2867 67.3792 38.0621 67.5742 37.905 67.8205C37.7179 68.0978 37.5569 68.3918 37.4255 68.7001C37.4207 68.7115 37.4153 68.717 37.4157 68.7221C37.4086 68.7658 37.4075 68.8046 37.4 68.8534C37.3776 69.0335 37.3427 69.2474 37.3137 69.4879C37.2855 69.7283 37.2964 70.0362 37.3724 70.0407C37.4275 70.0404 37.4819 70.0307 37.5325 70.0103C37.6819 69.956 37.8275 69.8911 37.9679 69.8163C37.9886 69.8036 38.0043 69.7921 38.0243 69.7787C38.0991 69.7022 38.1744 69.6309 38.2493 69.5544C38.4248 69.4146 38.6102 69.2872 38.8031 69.1722C38.8238 69.1595 38.8394 69.1472 38.8594 69.1346C38.9927 68.9933 39.1261 68.8527 39.2519 68.6923L39.362 68.526L39.4046 68.4625L39.4131 68.4348L39.4352 68.3789C39.4882 68.2758 39.514 68.1605 39.5078 68.0449L39.5075 68.0413ZM27.3678 4.8179C27.282 4.8252 27.1964 4.82663 27.1055 4.83436C26.226 4.93978 25.3633 5.15767 24.5385 5.48039C24.0486 5.66586 23.5817 5.90706 23.1466 6.19883C22.6824 6.49747 22.2848 6.88829 21.9788 7.34869C21.6746 7.88854 21.4857 8.48648 21.4234 9.10431C21.296 9.72548 21.3698 10.3712 21.6338 10.9474C21.6642 10.9974 21.7008 11.0432 21.7421 11.0842C21.8536 11.1916 21.987 11.2729 22.1335 11.3218C21.7394 10.6858 21.7094 9.88819 22.0526 9.22454C22.1585 8.95782 22.2916 8.70338 22.4508 8.46499C22.7095 8.09913 23.0055 7.76076 23.334 7.45467C23.8602 6.94487 24.1736 6.63133 24.2875 6.69756C24.4013 6.7638 24.2463 7.2311 23.8313 7.86139C23.6317 8.1704 23.3652 8.52304 23.1612 8.90836C23.0527 9.1023 22.961 9.30576 22.8873 9.51571C22.8233 9.73652 22.7882 9.96511 22.7823 10.1949C22.7188 10.5836 22.8669 10.9762 23.1706 11.2249C23.469 11.4528 23.8059 11.6221 24.1662 11.7243C24.8294 11.9278 25.2901 12.0237 25.2852 12.1541C25.2826 12.2514 24.9535 12.3714 24.3727 12.3668C24.5072 12.4962 24.6479 12.6303 24.7888 12.7753C24.9297 12.9203 25.0851 13.0903 25.2378 13.2715C25.9561 12.8586 26.7221 12.5379 27.5198 12.3161C27.1323 12.1417 26.7539 11.9461 26.3876 11.7304L26.0618 11.5041L25.7629 11.2272C25.5863 11.0385 25.4246 10.8362 25.2765 10.6239C25.1471 10.4005 25.0336 10.1678 24.9376 9.92771C24.8557 9.69009 24.7985 9.44526 24.7671 9.19532C24.6544 8.27988 24.8633 7.35315 25.3581 6.57592C25.7857 5.90586 26.3714 5.35231 27.0627 4.96354C27.1653 4.90591 27.2686 4.8643 27.3678 4.8179ZM31.934 65.4423C31.6013 65.0157 31.2786 64.5781 30.9771 64.1335C30.8998 64.2153 30.8064 64.2787 30.7024 64.3204C28.7799 65.138 26.5436 64.5286 25.123 66.4987C24.1844 67.8744 23.9128 69.6023 24.3837 71.2027C24.5594 70.3978 24.5382 69.2854 24.6595 68.8751C24.907 68.0087 25.4588 67.2616 26.212 66.7719C27.9752 65.6707 29.9585 65.654 31.934 65.4423ZM30.133 62.8094C29.3661 61.5217 28.6919 60.1801 28.1172 58.7945C27.652 57.8426 27.0305 56.9754 26.2799 56.2296C26.1917 57.7907 25.8324 59.3244 25.7282 60.8847C25.7215 61.0284 25.6709 61.167 25.5839 61.281C25.1404 62.2934 24.8914 63.3812 24.8495 64.4871C25.2234 64.1852 25.6343 63.9334 26.0725 63.7385C27.3876 63.1675 28.8542 63.3459 30.133 62.8094ZM24.0513 14.1223C23.9605 14.0118 23.8557 13.9068 23.7547 13.7957C23.442 13.4762 23.0976 13.1594 22.7687 12.8362L22.5939 12.6941L22.5881 12.6946C22.4979 12.7271 22.4041 12.7518 22.3094 12.7664C22.1873 12.7819 22.0636 12.78 21.9427 12.7596C21.846 12.7416 21.7502 12.7169 21.6568 12.6868C21.5678 12.6564 21.5168 12.6287 21.4443 12.5968C21.3613 12.5601 21.28 12.5181 21.2019 12.4714C21.1055 12.8418 20.9202 13.1824 20.6623 13.4642C20.0733 14.0816 19.3082 14.3204 18.9187 14.7375C18.4957 15.3247 18.2916 16.0429 18.3428 16.7657C18.3309 17.2238 18.3756 17.6814 18.4747 18.1286C18.539 18.4838 18.6951 18.8158 18.9284 19.091C18.9507 19.0715 18.9739 19.0535 18.9986 19.0368C19.1524 18.931 19.2933 18.8278 19.4352 18.7288C19.7091 18.5325 19.9535 18.365 20.1497 18.203C20.4771 17.9438 20.7594 17.6329 20.9868 17.2821C21.3532 16.7209 21.5126 16.4423 21.6183 16.4815C21.6678 16.4992 21.6859 16.5845 21.6738 16.7579C21.647 17.0244 21.5844 17.2875 21.4872 17.5374C21.3209 18.0085 21.0544 18.4371 20.7062 18.7931C20.4867 19.0308 20.252 19.253 20.0036 19.4588C19.8784 19.5665 19.7486 19.6805 19.6075 19.8064C19.5424 19.8608 19.4673 19.9264 19.4078 19.9869L19.2449 20.1643C18.7522 20.7435 18.5734 21.529 18.7668 22.2659C18.789 22.3735 18.8163 22.4807 18.8485 22.586C18.8889 22.6856 18.9298 22.7901 18.9713 22.8946C19.0914 23.094 19.2357 23.2781 19.4 23.4423C19.6719 23.7178 19.8925 24.0393 20.0504 24.3931C20.2031 24.8313 20.2195 25.3052 20.0962 25.7522C19.9952 26.1449 19.8511 26.4761 19.7962 26.7188C19.7754 26.8506 19.7811 26.9859 19.7608 27.1227C19.7619 27.2635 19.7854 27.4126 19.7874 27.5636C19.891 28.2184 20.1656 28.8339 20.5848 29.3466C21.0232 29.9145 21.6194 30.3399 22.2978 30.5691C22.6695 30.677 23.0637 30.6822 23.4383 30.5853C22.9054 29.94 22.4831 29.21 22.189 28.4253C22.0056 27.9007 21.8667 27.3605 21.775 26.8113C21.6979 27.1266 21.6386 27.4456 21.5984 27.7681C21.532 28.3199 21.542 28.7541 21.4086 28.7742C21.2961 28.7838 21.0709 28.4759 20.9583 27.7845C20.8847 26.9351 20.9776 26.0796 21.2325 25.2672L21.2695 25.129L21.3033 24.9626C21.3265 24.8518 21.3494 24.736 21.3716 24.6297C21.3945 24.5234 21.423 24.4143 21.4468 24.3094C21.4499 24.2178 21.4534 24.1307 21.4569 24.0435C21.4677 23.9827 21.474 23.9201 21.4745 23.858C21.4705 23.7503 21.4609 23.6372 21.452 23.5328C20.1364 22.3028 20.6866 19.784 22.0455 18.6784C21.9598 16.9262 22.7032 15.2365 24.0513 14.1223ZM24.565 57.3354C24.5649 57.2654 24.569 57.1942 24.5689 57.1241C24.5345 56.9511 24.5102 56.7757 24.4974 56.6001C24.4589 56.4034 24.3511 56.1519 24.2835 55.9204L24.2514 55.8588L24.2477 55.8161L24.1924 55.6697C24.1412 55.5711 24.1054 55.4661 24.0433 55.3684L24.0425 55.367C23.9301 55.1641 23.8072 54.9665 23.6748 54.7762C22.6339 53.4272 21.4012 52.2398 20.0161 51.252C18.9441 50.4181 18.2823 49.8457 18.3847 49.6654C18.4871 49.4852 19.3123 49.7501 20.5666 50.3794C21.2073 50.7119 21.8229 51.0904 22.41 51.5113C21.7557 50.5565 21.1557 49.5658 20.6118 48.5431C20.3742 48.0807 20.1658 47.6034 19.9897 47.1132C19.9354 47.2434 19.8705 47.3686 19.7956 47.4874L19.7476 47.5558L19.7237 47.5906L19.7143 47.6075C19.7044 47.6193 19.6804 47.6535 19.6804 47.6535L19.5227 47.8238C19.2894 48.0787 18.9907 48.2655 18.6589 48.3623C18.0299 48.5173 17.3688 48.4742 16.7645 48.2372C16.4986 48.1517 16.2376 48.0549 15.9934 47.9676C15.9765 48.0172 15.959 48.0676 15.9364 48.1177C15.8745 48.2274 15.8018 48.3299 15.7182 48.4232C15.6251 48.5238 15.5184 48.611 15.4017 48.6823C15.2842 48.7441 15.1596 48.7912 15.0308 48.8226C14.6481 48.8931 14.2538 48.8434 13.8993 48.6815C13.6766 48.5829 13.4624 48.4638 13.2611 48.3269C13.128 48.5215 12.9576 48.6871 12.7584 48.8135C12.4634 48.9926 12.112 49.0554 11.7729 48.9885C11.5192 48.9356 11.2781 48.8335 11.0636 48.6867C10.5001 48.279 10.0371 47.7467 9.71086 47.1305C9.17185 46.1652 9.12741 45.4629 9.28081 45.4302C9.43421 45.3974 9.72767 45.9011 10.4009 46.6338C10.7541 47.0535 11.1771 47.4067 11.6514 47.6789C11.7446 47.733 11.849 47.765 11.9558 47.7727C11.9991 47.7778 12.0413 47.7618 12.0713 47.7301C12.2207 47.5305 12.3208 47.2978 12.363 47.0511L12.6108 45.9152L13.5104 46.747C13.7775 47.001 14.0883 47.2038 14.428 47.3458C14.5017 47.3833 14.5826 47.4042 14.665 47.4074C14.6691 47.3961 14.693 47.2415 14.693 47.2415L14.7082 47.035L14.7536 46.1171L15.5842 46.3166C16.1385 46.479 16.6819 46.6745 17.212 46.9032C17.5559 47.0602 17.9335 47.1266 18.3101 47.0961C18.4411 47.0733 18.5638 47.0125 18.6614 46.9209L18.727 46.8723L18.7323 46.866L18.7472 46.8538L18.7467 46.848L18.7518 46.8475L18.7815 46.8129L18.8356 46.7484C18.8756 46.6976 18.9096 46.645 18.9397 46.5884C19.0862 46.2861 19.1821 45.9619 19.2242 45.6283C19.258 45.3933 19.2765 45.1749 19.2916 44.9684C19.0627 45.2317 18.7822 45.4446 18.4681 45.5955C17.9465 45.8435 17.3605 45.9232 16.7919 45.8241C15.947 45.6272 15.1911 45.1527 14.6432 44.4765C14.591 44.5123 14.5364 44.5447 14.4791 44.5722C14.233 44.6939 13.9605 44.7528 13.6858 44.7426C13.5517 44.7379 13.4187 44.72 13.2882 44.6895C13.1944 44.6712 13.1021 44.6447 13.0134 44.6099L12.9533 44.5946L12.9245 44.5809L12.8132 44.5364C12.8019 44.5315 12.6552 44.4469 12.6552 44.4469C12.5588 44.3894 12.4681 44.3226 12.3855 44.2479C12.2243 44.1126 12.0804 43.9577 11.9583 43.7862C11.7596 43.4994 11.5938 43.1908 11.4652 42.8659C11.3718 42.6468 11.2842 42.4374 11.1993 42.2665C10.9821 42.447 10.7328 42.5814 10.4637 42.6641C10.1621 42.7562 9.84358 42.7782 9.5326 42.7265C9.46868 42.718 9.40643 42.7036 9.34578 42.6825L9.20159 42.6356L9.16778 42.6224L9.06195 42.5825L9.04516 42.573L8.955 42.5208L8.78345 42.4171C8.40637 42.1344 8.12325 41.7438 7.97257 41.2959C7.85671 40.967 7.78825 40.6231 7.76733 40.2745C7.73423 39.8166 7.75317 39.3558 7.82287 38.9023C7.87274 38.6002 7.93315 38.422 8.00793 38.4215C8.08271 38.421 8.1768 38.5707 8.26232 38.8759C8.34785 39.1811 8.43923 39.6238 8.58474 40.1305C8.68352 40.6602 8.97725 41.1332 9.40709 41.4551L9.49151 41.491L9.6572 41.5258C9.71265 41.5372 9.76787 41.5544 9.7715 41.5373C9.87396 41.5205 9.97419 41.4945 10.0714 41.4585C10.3018 41.3666 10.4822 41.1805 10.5669 40.9462L10.8046 40.136L11.5533 40.5856C11.8916 40.7964 12.1682 41.0941 12.3531 41.4485C12.5238 41.748 12.6461 42.0238 12.763 42.2796C13.2309 43.2889 13.5823 43.4321 14.2356 42.6304C15.0016 41.6943 15.469 43.4667 16.0526 43.9902C16.3329 44.2708 16.6754 44.4804 17.0512 44.6025C17.3751 44.6874 17.7158 44.6775 18.0338 44.5738C18.3304 44.4734 18.6001 44.3037 18.8208 44.0798C18.841 44.062 18.8558 44.0388 18.8806 44.0148C18.6885 43.9771 18.5017 43.9331 18.2864 43.8704C18.1379 43.8232 17.9875 43.7717 17.8322 43.7141L17.6035 43.6306L17.4285 43.5374C17.3153 43.4711 17.1969 43.4111 17.0787 43.3452L17.0339 43.322L16.988 43.2872L16.9875 43.2887C16.9805 43.2834 16.9728 43.2782 16.9651 43.2738L16.9417 43.2546L16.8379 43.1707L16.6357 43.0046C16.0802 42.5116 15.6931 41.856 15.529 41.1304C15.4658 40.8905 15.4196 40.663 15.3781 40.4402C15.1133 40.5131 14.8358 40.5213 14.5673 40.4653C14.1027 40.358 13.7003 40.0681 13.4492 39.6609C13.2716 39.3839 13.1363 39.0822 13.0476 38.7656C12.8815 38.1533 12.7738 37.5265 12.7258 36.894L12.6913 36.4881C12.387 36.6089 12.0676 36.6886 11.7424 36.7257C10.9322 36.8435 10.11 36.606 9.48499 36.0736C9.34424 35.9476 9.21543 35.8081 9.10017 35.6573C9.00559 35.5018 8.91101 35.3463 8.82438 35.1989C8.6926 34.9049 8.60299 34.5943 8.55773 34.2754C8.48413 33.7428 8.51734 33.2019 8.65333 32.6822C8.8472 31.9802 9.21696 31.3392 9.72809 30.8226C10.085 30.5265 10.3168 30.3988 10.397 30.462C10.4772 30.5253 10.4037 30.7886 10.1897 31.1937C10.1224 31.4104 10.0169 31.6304 9.93918 31.9129C9.8977 32.0574 9.85586 32.2062 9.81551 32.3725C9.79125 32.5315 9.76233 32.7041 9.74161 32.8876C9.71179 33.2632 9.749 33.6412 9.85314 34.0032C9.90504 34.1864 9.97821 34.3635 10.0694 34.5309C10.1292 34.601 10.1897 34.6718 10.2437 34.7432C10.2977 34.8145 10.382 34.8497 10.4414 34.9154C10.7579 35.1178 11.1425 35.1807 11.506 35.09C12.0134 34.9658 12.4921 34.7433 12.9149 34.4351L13.831 33.871L14.2023 34.8206C14.2808 35.0176 14.3324 35.2235 14.3568 35.4339C14.3858 35.595 14.3976 35.7342 14.4157 35.8786C14.4498 36.151 14.4781 36.4245 14.5069 36.7032C14.5579 37.2179 14.6499 37.7278 14.7824 38.2268C14.8236 38.3788 14.8847 38.5248 14.9645 38.6603C14.969 38.6702 14.9755 38.6784 14.9827 38.6858C15.0104 38.6783 15.037 38.6666 15.0612 38.6521C15.2051 38.5844 15.3404 38.5006 15.465 38.4024L16.5802 37.5827L16.8779 38.8722C17.0484 39.6046 17.0702 40.246 17.1769 40.74C17.2372 41.1583 17.422 41.547 17.7071 41.8579L17.8898 42.0417L18.2207 42.2589L18.3804 42.3694L18.5085 42.4228C18.5929 42.4587 18.6774 42.4953 18.7623 42.537C18.9016 42.5953 19.0627 42.6524 19.2236 42.7088C19.2176 39.997 20.0285 37.3495 21.5498 35.1116C19.6094 34.4625 17.9918 33.0893 17.0298 31.2759C15.896 29.4244 13.8396 26.0349 11.1815 26.6068C7.20689 27.4696 5.75946 34.3707 5.17738 37.6596C4.18189 43.2893 5.43277 48.2622 8.6976 53.0479C12.5593 58.7028 17.854 63.0559 22.8509 67.6462C23.0028 67.0923 23.5428 66.4192 23.5163 65.8425C23.5052 65.7033 23.4682 65.5677 23.4068 65.443C23.2061 65.0906 22.9689 64.761 22.6991 64.4591C22.6928 64.4538 22.4397 64.1343 22.4397 64.1343C22.2663 63.9228 22.0971 63.7093 21.9286 63.4966C21.7403 63.3074 21.5522 63.1198 21.3699 62.9323C21.2754 62.8381 21.191 62.7423 21.0871 62.6482L20.7677 62.3775C20.5587 62.2003 20.3567 62.0291 20.1474 61.8578C19.9382 61.6865 19.7102 61.5 19.4997 61.323C19.2893 61.1459 19.0771 60.9749 18.8674 60.7978L18.2777 60.2536C16.9183 58.9864 15.6575 57.6158 14.5055 56.1557C12.5662 53.6637 11.5284 52.0268 11.6744 51.9064C11.8341 51.7687 13.1672 53.1966 15.2776 55.4783C16.5021 56.8081 17.7945 58.0722 19.1513 59.2652C19.3428 59.4329 19.5401 59.6001 19.7323 59.7678C19.9399 59.9283 20.1411 60.09 20.3488 60.2512C20.5564 60.4117 20.7696 60.5776 20.9827 60.7435C21.203 60.9248 21.4284 61.1064 21.6541 61.2924C22.1213 61.6776 22.5648 62.0918 22.9807 62.5317C23.0235 62.5821 23.0591 62.6331 23.102 62.685C23.048 62.4946 22.9834 62.3074 22.9083 62.124C22.487 61.253 21.942 60.448 21.29 59.7346C20.6588 59.01 19.9991 58.3513 19.4139 57.6708C18.8355 57.0118 18.2995 56.3974 17.8091 55.8332C15.8625 53.5805 14.7283 52.135 14.8669 51.9948C15.0054 51.8546 16.3944 53.0601 18.5363 55.1398C19.0657 55.6679 19.6419 56.241 20.2647 56.859C20.8661 57.4737 21.565 58.1057 22.2642 58.853C22.7372 59.3502 23.1699 59.8858 23.5574 60.453C23.1368 59.1541 22.5176 57.929 21.7225 56.8219C20.4813 55.2278 19.1476 53.7087 17.7294 52.2712C16.6436 51.0873 16.0994 50.2566 16.2269 50.1159C16.3701 49.9628 17.1841 50.5485 18.4289 51.5189C20.1194 52.7923 21.6268 54.296 22.9059 55.9862C23.5188 56.8379 24.0094 57.7724 24.3623 58.7616C24.4358 58.2845 24.5028 57.8086 24.5648 57.3324L24.565 57.3354Z" fill="#FDFEFF"/>
<path d="M54.0091 42.3448L54.0194 42.3381C54.0781 42.3017 54.1275 42.2508 54.1631 42.1908C54.3079 41.9631 54.4107 41.7105 54.4659 41.4459L54.8926 39.5004L55.7735 41.2479C55.8678 41.4428 55.9718 41.6325 56.0862 41.8163C56.0959 41.8366 56.1084 41.8553 56.123 41.8723C56.1688 41.8472 56.2119 41.8158 56.2502 41.7797L56.3003 41.7368C56.3064 41.7319 56.3133 41.7276 56.3204 41.7248L56.3349 41.7075L56.4541 41.5894C56.554 41.4991 56.5414 41.479 56.5907 41.4266C56.8813 40.8887 56.9936 40.2695 56.91 39.6626C56.8761 39.0756 56.802 38.5796 56.7882 38.2288C56.7743 37.8781 56.7995 37.6701 56.8834 37.6483C56.968 37.6266 57.0887 37.782 57.2546 38.0928C57.4879 38.5468 57.6694 39.0242 57.7957 39.518C57.8951 39.884 57.9489 40.2613 57.9565 40.6403C57.9736 41.1411 57.856 41.6374 57.615 42.0762C57.5457 42.2011 57.4658 42.3203 57.3764 42.4316L57.2697 42.5604L57.2453 42.5895L57.1907 42.6481L57.1211 42.7183C57.0149 42.8281 56.8962 42.9272 56.7691 43.0133C56.5887 43.1381 56.382 43.2192 56.1651 43.2486C55.884 43.2747 55.6036 43.1978 55.3745 43.0325C55.3658 43.0245 55.3579 43.0164 55.3506 43.0075C55.1813 43.2636 54.9538 43.4757 54.6869 43.6268C54.5221 43.7139 54.3423 43.7693 54.1575 43.7909C54.0491 43.7979 53.94 43.7962 53.8316 43.7857L53.6664 43.7567C53.2084 43.651 52.8114 43.365 52.5644 42.9633C52.3937 42.6894 52.2554 42.396 52.1523 42.0893C52.1098 41.9732 52.0735 41.8631 52.0315 41.7535C51.9668 41.8131 51.9019 41.8777 51.8261 41.9345C51.6993 42.0417 51.5562 42.1269 51.4014 42.1867C51.1988 42.2638 50.9781 42.2826 50.7653 42.2408C50.4233 42.1487 50.1354 41.9162 49.9727 41.6C49.7846 41.2414 49.6586 40.8535 49.6012 40.4517C49.5467 40.1439 49.513 39.8321 49.5009 39.5192C49.454 38.4039 49.5728 37.7667 49.7221 37.754C49.8714 37.7413 50.054 38.369 50.3297 39.3903C50.3992 39.6436 50.4763 39.9181 50.576 40.2017C50.6617 40.4755 50.7856 40.7365 50.9426 40.9765C50.9477 40.9856 50.9542 40.9938 50.9615 41.0019C50.9764 40.9897 50.9967 40.9719 51.017 40.9541C51.2513 40.694 51.4473 40.4021 51.5992 40.0869L52.0588 39.2207L52.7043 39.9769C52.9143 40.2343 53.0798 40.5233 53.1963 40.8339C53.2863 41.0715 53.383 41.321 53.4802 41.5668C53.5541 41.7694 53.6497 41.9627 53.7661 42.1441C53.8657 42.2992 53.9256 42.3197 53.9441 42.3239L54.0091 42.3448Z" fill="#FDFEFF"/>
<path d="M45.9591 18.5075L45.9722 18.5334C45.972 18.5305 45.9689 18.5285 45.9661 18.5295C45.9662 18.5215 45.9634 18.5144 45.9591 18.5075Z" fill="#FDFEFF"/>
<path d="M37.7696 29.1729C37.8418 29.3303 37.3252 29.7736 36.3877 30.3344C36.1464 30.4688 35.8784 30.6157 35.5966 30.7696C35.314 30.9236 34.9513 31.0413 34.5971 31.1817C34.4144 31.2461 34.228 31.3269 34.0444 31.3805C33.4557 31.5649 32.8492 31.6858 32.2348 31.7395C31.3958 31.8086 30.5512 31.7095 29.7501 31.4476C29.1162 31.246 28.5092 30.9683 27.9413 30.6202C26.9871 30.0354 26.506 29.5631 26.5787 29.4101C26.6522 29.2579 27.3253 29.4496 28.3199 29.7922C30.0812 30.4207 31.9801 30.5557 33.811 30.1811C33.9847 30.1393 34.1365 30.0877 34.2943 30.0473C34.6116 29.9502 34.911 29.8919 35.1984 29.7864C35.4859 29.681 35.7639 29.5931 36.0149 29.5119C37.0277 29.171 37.697 29.0112 37.7696 29.1729Z" fill="#FDFEFF"/>
<path d="M34.6111 21.9018C34.6512 22.0911 34.6496 22.2862 34.6061 22.4746C34.5069 22.7101 34.3851 22.8496 34.2604 22.8442C34.1365 22.8387 34.0365 22.68 33.9672 22.4369C33.8726 22.2383 33.7536 22.0521 33.6135 21.8829C33.3914 21.6535 33.2076 21.3895 33.0684 21.1013C32.9754 20.8281 32.9861 20.6374 33.0933 20.5743C33.2013 20.511 33.3778 20.5712 33.5658 20.6976C33.8416 20.8567 34.0919 21.0581 34.306 21.2947C34.3738 21.3919 34.4417 21.4891 34.4975 21.5821C34.542 21.6864 34.5793 21.7928 34.6111 21.9018Z" fill="#FDFEFF"/>
<path d="M31.6837 19.5152C31.7048 19.8668 31.6388 20.2185 31.4909 20.5377C31.3469 20.8697 31.1395 21.1896 31.0161 21.4819C30.491 22.3975 31.0051 22.31 31.6025 22.7404C31.74 22.8367 31.7824 22.9419 31.747 22.9873C31.7203 23.0494 31.63 23.0629 31.4969 23.0786C31.3639 23.095 31.1982 23.1201 30.9324 23.1383C30.7469 23.1613 30.5594 23.1342 30.3874 23.0597C30.2441 22.9975 30.1265 22.887 30.0543 22.7471C29.989 22.6285 29.9503 22.4975 29.9402 22.3618C29.9286 22.2431 29.9272 22.1242 29.9367 22.0051C29.9462 21.9108 29.9615 21.8176 29.9834 21.7252C30.0284 21.5111 30.0978 21.3015 30.1891 21.1024C30.3522 20.7739 30.5375 20.4581 30.7436 20.1558C30.873 19.9521 30.9726 19.7304 31.0378 19.4978C31.0649 19.4065 31.0876 19.3147 31.1051 19.2213C31.104 19.1315 31.111 19.0426 31.126 18.9544C31.1461 18.8067 31.1871 18.7164 31.2496 18.6986C31.312 18.6809 31.3828 18.753 31.4687 18.8749C31.5179 18.9496 31.5624 19.0283 31.6019 19.1089C31.6429 19.2412 31.6705 19.3777 31.6837 19.5152Z" fill="#FDFEFF"/>
<path d="M27.0837 35.6752C28.7225 35.7082 30.0495 35.9364 30.0497 36.1853C30.0498 36.4343 28.7099 36.619 27.0797 36.5845C25.4495 36.5501 24.1249 36.3327 24.1199 36.079C24.1142 35.8247 25.4388 35.6479 27.0837 35.6752Z" fill="#FDFEFF"/>
</g>
<path id="accents" d="M7.00003 58L6.57128 58.2572L7.00003 58ZM20 71.5L20.4903 71.5981L20.548 71.3096L20.3238 71.119L20 71.5ZM27.5 80L27.9743 79.8419L27.8732 79.5384L27.5552 79.5031L27.5 80ZM31 87.5L31.4642 87.3143L31.3936 87.1378L31.2236 87.0528L31 87.5ZM32 91.5L32.3201 91.8841L32.5 91.7342V91.5H32ZM31 97L30.584 97.2774L31 97ZM15 17L15.4744 17.1581L15 17ZM5.5528 48.969C5.6763 48.722 5.57618 48.4217 5.32919 48.2982C5.0822 48.1747 4.78187 48.2748 4.65837 48.5218L5.5528 48.969ZM3.35215 51.437C3.25519 51.6955 3.38619 51.9837 3.64475 52.0807C3.90331 52.1777 4.19152 52.0467 4.28848 51.7881L3.35215 51.437ZM6.80986 51.8854C6.96055 51.654 6.89511 51.3442 6.6637 51.1935C6.43229 51.0429 6.12255 51.1083 5.97187 51.3397L6.80986 51.8854ZM5.3967 53.0955L5.87104 53.2537L5.3967 53.0955ZM4.64135 53.7997C4.5388 54.056 4.6635 54.347 4.9199 54.4496C5.17629 54.5521 5.46727 54.4274 5.56983 54.171L4.64135 53.7997ZM8.47105 54.0269C8.49398 53.7517 8.28949 53.51 8.0143 53.4871C7.73911 53.4641 7.49743 53.6686 7.4745 53.9438L8.47105 54.0269ZM6.1943 56.8692C6.14891 57.1416 6.33292 57.3992 6.6053 57.4446C6.87769 57.49 7.1353 57.306 7.1807 57.0336L6.1943 56.8692ZM10.0982 56.2902C10.2245 56.0447 10.1278 55.7432 9.8822 55.6169C9.63663 55.4906 9.33517 55.5873 9.20888 55.8329L10.0982 56.2902ZM7.56316 58.8397C7.40481 59.0659 7.45982 59.3777 7.68605 59.5361C7.91227 59.6944 8.22404 59.6394 8.38239 59.4132L7.56316 58.8397ZM11.4972 58.2359C11.606 57.9821 11.4884 57.6881 11.2346 57.5793C10.9808 57.4706 10.6868 57.5881 10.5781 57.8419L11.4972 58.2359ZM9.05463 61.3015C9.05463 61.5777 9.27848 61.8015 9.55463 61.8015C9.83077 61.8015 10.0546 61.5777 10.0546 61.3015H9.05463ZM12.4176 59.5221C12.4723 59.2514 12.2972 58.9876 12.0265 58.933C11.7558 58.8783 11.4921 59.0534 11.4374 59.3241L12.4176 59.5221ZM11.0487 62.2737L11.4959 62.4973L11.0487 62.2737ZM10.4388 62.9823C10.4388 63.2584 10.6627 63.4823 10.9388 63.4823C11.2149 63.4823 11.4388 63.2584 11.4388 62.9823H10.4388ZM14.1831 61.1577C14.2675 60.8948 14.1228 60.6132 13.8599 60.5288C13.5969 60.4444 13.3154 60.5892 13.231 60.8521L14.1831 61.1577ZM12.1206 63.9675C11.9549 64.1884 11.9997 64.5018 12.2206 64.6675C12.4415 64.8332 12.7549 64.7884 12.9206 64.5675L12.1206 63.9675ZM16.2025 62.9582C16.353 62.7266 16.2873 62.4169 16.0558 62.2664C15.8242 62.116 15.5146 62.1816 15.3641 62.4132L16.2025 62.9582ZM13.6282 65.889C13.5409 66.151 13.6825 66.4342 13.9444 66.5215C14.2064 66.6088 14.4896 66.4672 14.5769 66.2053L13.6282 65.889ZM17.5091 65.0012C17.7505 64.8671 17.8375 64.5627 17.7034 64.3213C17.5693 64.0799 17.2649 63.993 17.0235 64.1271L17.5091 65.0012ZM16.5742 66.1241L16.1187 65.918L16.5742 66.1241ZM15.4078 67.4709C15.3205 67.7329 15.4621 68.016 15.724 68.1034C15.986 68.1907 16.2692 68.0491 16.3565 67.7871L15.4078 67.4709ZM19.5425 65.9078C19.5747 65.6336 19.3786 65.3851 19.1043 65.3529C18.8301 65.3206 18.5816 65.5168 18.5493 65.791L19.5425 65.9078ZM17.3744 69.2874C17.3075 69.5553 17.4703 69.8267 17.7382 69.8937C18.0061 69.9607 18.2776 69.7978 18.3446 69.5299L17.3744 69.2874ZM20.9861 67.9303C21.0979 67.6778 20.9838 67.3825 20.7313 67.2707C20.4788 67.1589 20.1835 67.273 20.0717 67.5255L20.9861 67.9303ZM18.5716 70.3381C18.4842 70.6 18.6258 70.8832 18.8878 70.9705C19.1498 71.0579 19.4329 70.9163 19.5202 70.6543L18.5716 70.3381ZM19.6334 72.869C19.6334 73.1451 19.8573 73.369 20.1334 73.369C20.4096 73.369 20.6334 73.1451 20.6334 72.869H19.6334ZM20.7816 70.9905L21.2186 71.2333L20.7816 70.9905ZM21.5066 69.7602L21.0235 69.6313L21.5066 69.7602ZM22.1703 69.5408C22.4071 69.3987 22.4839 69.0916 22.3418 68.8548C22.1997 68.618 21.8926 68.5412 21.6558 68.6833L22.1703 69.5408ZM23.3489 71.8073C23.4724 71.5603 23.3723 71.26 23.1253 71.1365C22.8783 71.013 22.578 71.1131 22.4545 71.3601L23.3489 71.8073ZM21.3198 74.7859L20.8272 74.7002L21.3198 74.7859ZM21.0232 75.4835L21.4994 75.6359L21.4994 75.6359L21.0232 75.4835ZM21.0218 75.488L20.5456 75.3356L20.5455 75.3357L21.0218 75.488ZM21.3255 75.835C21.3255 75.5589 21.1016 75.335 20.8255 75.335C20.5494 75.335 20.3255 75.5589 20.3255 75.835H21.3255ZM24.4615 73.7253C24.5522 73.4645 24.4143 73.1795 24.1535 73.0888C23.8927 72.9981 23.6077 73.136 23.517 73.3968L24.4615 73.7253ZM22.3634 76.5271L22.7901 76.7878L22.3634 76.5271ZM22.4591 76.8967C22.3356 76.6497 22.0353 76.5496 21.7883 76.6731C21.5413 76.7966 21.4412 77.0969 21.5647 77.3439L22.4591 76.8967ZM25.8542 75.1814C25.93 74.9159 25.7763 74.6392 25.5108 74.5633C25.2453 74.4874 24.9685 74.6412 24.8927 74.9067L25.8542 75.1814ZM23.7301 78.0047C23.618 78.2571 23.7316 78.5526 23.9839 78.6647C24.2363 78.7769 24.5318 78.6632 24.6439 78.4109L23.7301 78.0047ZM28.2412 76.5978C28.2802 76.3244 28.0903 76.0712 27.8169 76.0321C27.5435 75.9931 27.2903 76.183 27.2512 76.4564L28.2412 76.5978ZM26.4553 79.4931C26.4553 79.7693 26.6791 79.9931 26.9553 79.9931C27.2314 79.9931 27.4553 79.7693 27.4553 79.4931H26.4553ZM30.8917 78.279C31.1494 78.1799 31.278 77.8906 31.1789 77.6329C31.0797 77.3751 30.7904 77.2465 30.5327 77.3457L30.8917 78.279ZM27.6087 79.8382C27.4717 80.078 27.555 80.3834 27.7947 80.5204C28.0345 80.6574 28.3399 80.5741 28.4769 80.3344L27.6087 79.8382ZM31.2959 79.811C31.4715 79.5978 31.441 79.2827 31.2278 79.1071C31.0146 78.9316 30.6995 78.9621 30.524 79.1752L31.2959 79.811ZM29.3281 82.0087L29.7817 82.2191L29.3281 82.0087ZM29.0754 83.1896L29.5538 83.3352L29.0754 83.1896ZM28.3435 83.6463C28.2893 83.9171 28.4649 84.1805 28.7357 84.2347C29.0065 84.2888 29.2699 84.1132 29.324 83.8425L28.3435 83.6463ZM32.6014 82.3553C32.7625 82.131 32.7112 81.8186 32.4869 81.6575C32.2626 81.4965 31.9502 81.5477 31.7891 81.772L32.6014 82.3553ZM29.3374 86.2925C29.2704 86.5604 29.4333 86.8319 29.7012 86.8989C29.9691 86.9659 30.2405 86.803 30.3075 86.5351L29.3374 86.2925ZM33.6149 85.3045C33.8213 85.1211 33.8399 84.805 33.6565 84.5986C33.473 84.3922 33.157 84.3736 32.9506 84.5571L33.6149 85.3045ZM31.7174 87.3256L31.2898 87.0665L31.7174 87.3256ZM30.8582 87.7721C30.7347 88.0191 30.8348 88.3194 31.0818 88.4429C31.3288 88.5664 31.6291 88.4663 31.7526 88.2193L30.8582 87.7721ZM34.6365 87.3487C34.8252 87.1471 34.8147 86.8307 34.6131 86.642C34.4115 86.4533 34.0951 86.4637 33.9064 86.6654L34.6365 87.3487ZM32.2062 89.3689L31.7844 89.1004L32.2062 89.3689ZM31.6439 89.3229C31.4487 89.5181 31.4487 89.8347 31.6439 90.03C31.8392 90.2253 32.1558 90.2253 32.3511 90.03L31.6439 89.3229ZM30.2187 93.5219C30.0491 93.7399 30.0884 94.054 30.3064 94.2235C30.5243 94.3931 30.8385 94.3538 31.008 94.1358L30.2187 93.5219ZM33.9419 90.6047L33.6144 90.2268L33.9419 90.6047ZM35.4182 89.953C35.6802 89.8657 35.8218 89.5826 35.7344 89.3206C35.6471 89.0586 35.364 88.917 35.102 89.0044L35.4182 89.953ZM33.1931 95.5097C33.4116 95.3408 33.4518 95.0268 33.2829 94.8083C33.1139 94.5898 32.7999 94.5497 32.5815 94.7186L33.1931 95.5097ZM30.8311 96.6368C30.7438 96.8987 30.8853 97.1819 31.1473 97.2692C31.4093 97.3565 31.6924 97.215 31.7798 96.953L30.8311 96.6368ZM33.8022 98.3505C33.9515 98.1182 33.8843 97.8089 33.652 97.6596C33.4197 97.5102 33.1104 97.5775 32.961 97.8098L33.8022 98.3505ZM32.0712 99.1939C31.9219 99.4262 31.9892 99.7355 32.2214 99.8849C32.4537 100.034 32.7631 99.9669 32.9124 99.7347L32.0712 99.1939ZM36.0183 99.0634C36.1245 98.8085 36.0039 98.5158 35.749 98.4096C35.4941 98.3033 35.2014 98.4239 35.0952 98.6788L36.0183 99.0634ZM34.6869 99.8005C34.5996 100.062 34.7412 100.346 35.0031 100.433C35.2651 100.52 35.5483 100.379 35.6356 100.117L34.6869 99.8005ZM38.581 99.3777C38.697 99.1271 38.5879 98.8299 38.3373 98.7139C38.0867 98.598 37.7895 98.7071 37.6735 98.9577L38.581 99.3777ZM36.9728 100.559C36.8677 100.815 36.9895 101.107 37.2448 101.212C37.5001 101.317 37.7924 101.195 37.8975 100.94L36.9728 100.559ZM40.8557 99.3763C40.9708 99.1253 40.8608 98.8285 40.6098 98.7133C40.3589 98.5981 40.062 98.7081 39.9468 98.9591L40.8557 99.3763ZM39.2092 100.947C39.2092 101.223 39.433 101.447 39.7092 101.447C39.9853 101.447 40.2092 101.223 40.2092 100.947H39.2092ZM22.5655 32.5112C22.8275 32.4238 22.9691 32.1407 22.8817 31.8787C22.7944 31.6167 22.5112 31.4752 22.2493 31.5625L22.5655 32.5112ZM21.9076 32.8827L21.4268 32.7453L21.9076 32.8827ZM22.1165 33.3221C22.1165 33.046 21.8926 32.8221 21.6165 32.8221C21.3403 32.8221 21.1165 33.046 21.1165 33.3221H22.1165ZM20.5569 31.1163C20.7037 30.8824 20.6332 30.5738 20.3993 30.427C20.1655 30.2801 19.8568 30.3507 19.71 30.5845L20.5569 31.1163ZM18.7459 31.9334C18.525 32.0991 18.4802 32.4125 18.6459 32.6334C18.8116 32.8543 19.125 32.8991 19.3459 32.7334L18.7459 31.9334ZM19.4406 29.2789C19.6101 29.0609 19.5708 28.7468 19.3529 28.5773C19.1349 28.4077 18.8207 28.447 18.6512 28.665L19.4406 29.2789ZM18.1616 30.444L18.6005 30.6834L18.1616 30.444ZM18.6442 30.3657C18.7041 30.0961 18.5341 29.829 18.2646 29.7691C17.995 29.7092 17.7279 29.8792 17.668 30.1487L18.6442 30.3657ZM16.5484 27.8327C16.3014 27.9562 16.2013 28.2565 16.3248 28.5035C16.4483 28.7505 16.7486 28.8506 16.9956 28.7271L16.5484 27.8327ZM17.9364 27.3681L18.199 27.7936H18.199L17.9364 27.3681ZM19.2244 27.2129C19.4542 27.0597 19.5163 26.7493 19.3631 26.5195C19.2099 26.2897 18.8995 26.2277 18.6697 26.3808L19.2244 27.2129ZM15.3902 26.5097C15.3408 26.7814 15.521 27.0417 15.7927 27.0911C16.0644 27.1405 16.3247 26.9603 16.3741 26.6886L15.3902 26.5097ZM17.6398 25.0392L17.9346 25.443L17.6398 25.0392ZM18.874 24.5747C19.121 24.4512 19.2211 24.1508 19.0976 23.9038C18.9741 23.6568 18.6738 23.5567 18.4268 23.6802L18.874 24.5747ZM15.7024 22.3281C15.4731 22.482 15.412 22.7926 15.5658 23.0219C15.7197 23.2512 16.0303 23.3124 16.2596 23.1585L15.7024 22.3281ZM18.2499 21.7704C18.4224 21.5547 18.3875 21.2401 18.1718 21.0676C17.9562 20.8951 17.6416 20.93 17.4691 21.1457L18.2499 21.7704ZM14.9395 20.4084C14.742 20.6014 14.7383 20.9179 14.9313 21.1154C15.1244 21.3129 15.4409 21.3166 15.6384 21.1235L14.9395 20.4084ZM15.2996 20.7556L15.649 21.1132L15.649 21.1132L15.2996 20.7556ZM17.8819 19.4714C18.1498 19.4044 18.3127 19.133 18.2457 18.8651C18.1787 18.5972 17.9073 18.4343 17.6394 18.5013L17.8819 19.4714ZM14.4249 17.6763C14.1928 17.8258 14.1259 18.1353 14.2755 18.3674C14.425 18.5995 14.7345 18.6664 14.9666 18.5168L14.4249 17.6763ZM17.5436 16.9307C17.7734 16.7775 17.8355 16.4671 17.6823 16.2373C17.5291 16.0075 17.2187 15.9455 16.9889 16.0986L17.5436 16.9307ZM15.1181 15.3527C14.8586 15.4471 14.7247 15.7339 14.819 15.9935C14.9134 16.253 15.2003 16.3869 15.4598 16.2925L15.1181 15.3527ZM17.3485 15.426C17.6209 15.3806 17.8049 15.123 17.7595 14.8506C17.7141 14.5782 17.4565 14.3942 17.1841 14.4396L17.3485 15.426ZM16.1954 12.8577C15.923 12.9031 15.739 13.1607 15.7844 13.4331C15.8298 13.7055 16.0874 13.8895 16.3598 13.8441L16.1954 12.8577ZM20.0345 12.6645C20.3107 12.6645 20.5345 12.4406 20.5345 12.1645C20.5345 11.8884 20.3107 11.6645 20.0345 11.6645V12.6645ZM18.3538 8.69849C18.0777 8.69849 17.8538 8.92234 17.8538 9.19849C17.8538 9.47463 18.0777 9.69849 18.3538 9.69849V8.69849ZM20.0346 9.69849C20.3107 9.69849 20.5346 9.47463 20.5346 9.19849C20.5346 8.92234 20.3107 8.69849 20.0346 8.69849V9.69849ZM4.01603 35.8745C2.25603 42.6631 2.1133 46.999 2.82376 50.2929C3.53299 53.5811 5.09092 55.79 6.57128 58.2572L7.42877 57.7428C5.90913 55.21 4.46706 53.1689 3.80129 50.0821C3.13675 47.001 3.24402 42.8369 4.98402 36.1255L4.01603 35.8745ZM6.57128 58.2572C7.80663 60.3162 10.2643 63.0214 12.7973 65.5419C15.3413 68.0733 18.0011 70.4572 19.6762 71.881L20.3238 71.119C18.6656 69.7095 16.0254 67.3433 13.5027 64.8331C10.9691 62.3119 8.59342 59.6838 7.42877 57.7428L6.57128 58.2572ZM19.5097 71.4019C19.2406 72.7475 19.3195 74.8056 20.4349 76.6466C21.5654 78.5127 23.7164 80.0827 27.4448 80.4969L27.5552 79.5031C24.0836 79.1173 22.2346 77.6873 21.2901 76.1284C20.3305 74.5444 20.2594 72.7525 20.4903 71.5981L19.5097 71.4019ZM27.0257 80.1581C27.3972 81.2728 27.6761 82.2331 27.9182 83.0688C28.1587 83.899 28.3671 84.6213 28.5933 85.2354C29.0538 86.4852 29.618 87.368 30.7764 87.9472L31.2236 87.0528C30.382 86.632 29.9462 86.0148 29.5317 84.8896C29.3204 84.3162 29.1226 83.6323 28.8787 82.7906C28.6364 81.9544 28.3528 80.9772 27.9743 79.8419L27.0257 80.1581ZM30.5358 87.6857C31.3187 89.6431 31.5 91.0792 31.5 91.5H32.5C32.5 90.9208 32.2813 89.3569 31.4642 87.3143L30.5358 87.6857ZM31.6799 91.1159C31.1235 91.5795 30.4109 92.4283 30.0509 93.5038C29.6834 94.6013 29.6873 95.9323 30.584 97.2774L31.416 96.7226C30.7127 95.6677 30.7166 94.6654 30.9991 93.8212C31.2891 92.9551 31.8765 92.2538 32.3201 91.8841L31.6799 91.1159ZM30.584 97.2774C31.0704 98.0069 31.3401 98.5177 31.518 98.8882C31.6106 99.0812 31.6732 99.2247 31.7417 99.3725C31.8055 99.5101 31.8737 99.6494 31.959 99.7774C32.1524 100.067 32.3969 100.244 32.7636 100.409C33.1052 100.563 33.6049 100.729 34.3419 100.974L34.6581 100.026C33.8951 99.7713 33.4573 99.6247 33.1739 99.4972C32.9156 99.3809 32.8476 99.3075 32.791 99.2226C32.7513 99.1631 32.7101 99.0837 32.6489 98.9517C32.5924 98.83 32.5144 98.6532 32.4195 98.4555C32.2224 98.0448 31.9296 97.4931 31.416 96.7226L30.584 97.2774ZM34.3419 100.974C35.0529 101.211 35.8853 101.541 36.7181 101.757C37.5698 101.979 38.4913 102.103 39.4629 101.93C41.4341 101.578 43.4111 100.042 45.4412 96.2353L44.5588 95.7647C42.5889 99.4583 40.8159 100.672 39.2871 100.945C38.5087 101.084 37.7427 100.99 36.9694 100.789C36.1772 100.584 35.4471 100.289 34.6581 100.026L34.3419 100.974ZM18.8841 31.6799C17.6428 30.1903 16.9435 29.1245 16.5993 28.0919C16.2603 27.0749 16.25 26.0412 16.4932 24.5822L15.5068 24.4178C15.25 25.9588 15.2396 27.1751 15.6507 28.4081C16.0564 29.6255 16.8572 30.8097 18.1159 32.3201L18.8841 31.6799ZM16.4932 24.5822C16.7696 22.924 16.2062 21.6685 15.7785 20.5688C15.3489 19.4641 15.0329 18.4824 15.4744 17.1581L14.5257 16.8419C13.9671 18.5176 14.4011 19.7859 14.8465 20.9312C15.2938 22.0815 15.7304 23.076 15.5068 24.4178L16.4932 24.5822ZM15.4744 17.1581C15.7299 16.3913 15.8896 15.7842 16.0159 15.2871C16.1444 14.7811 16.2308 14.4223 16.3449 14.1084C16.551 13.5416 16.8481 13.1139 17.8 12.4L17.2 11.6C16.1519 12.3861 15.699 12.9584 15.4051 13.7666C15.2692 14.1402 15.1681 14.5627 15.0466 15.041C14.9229 15.5283 14.7701 16.1087 14.5257 16.8419L15.4744 17.1581ZM17.8 12.4C18.4509 11.9118 18.6452 11.2882 18.7082 10.6848C18.7382 10.3974 18.7404 10.0943 18.7469 9.82355C18.7537 9.54225 18.765 9.27742 18.8064 9.01548C18.886 8.51107 19.0779 8.00867 19.6021 7.51105C20.1417 6.99874 21.0608 6.46597 22.647 5.97789L22.353 5.02211C20.6892 5.53403 19.6083 6.12626 18.9136 6.78582C18.2033 7.46008 17.9265 8.17643 17.8186 8.85952C17.7662 9.19133 17.7541 9.51244 17.7472 9.7995C17.7401 10.0971 17.7383 10.3447 17.7136 10.5809C17.6673 11.0243 17.5491 11.3382 17.2 11.6L17.8 12.4ZM4.65837 48.5218C4.18399 49.4706 3.72494 50.4429 3.35215 51.437L4.28848 51.7881C4.64295 50.8429 5.08378 49.907 5.5528 48.969L4.65837 48.5218ZM5.97187 51.3397C5.81617 51.5788 5.65527 51.752 5.44783 52.0155C5.25394 52.2618 5.05012 52.5541 4.92236 52.9374L5.87104 53.2537C5.94502 53.0317 6.06666 52.8461 6.2336 52.634C6.387 52.4391 6.62231 52.1734 6.80986 51.8854L5.97187 51.3397ZM4.92236 52.9374C4.80567 53.2875 4.75187 53.5234 4.64135 53.7997L5.56983 54.171C5.69045 53.8695 5.7899 53.4971 5.87104 53.2537L4.92236 52.9374ZM7.4745 53.9438C7.43689 54.3951 7.22678 54.7675 6.93881 55.2276C6.66775 55.6606 6.30607 56.1986 6.1943 56.8692L7.1807 57.0336C7.25311 56.5991 7.48529 56.2393 7.78645 55.7581C8.07068 55.3041 8.41112 54.746 8.47105 54.0269L7.4745 53.9438ZM9.20888 55.8329C8.66055 56.8991 8.20381 57.9245 7.56316 58.8397L8.38239 59.4132C9.0748 58.424 9.58398 57.2901 10.0982 56.2902L9.20888 55.8329ZM10.5781 57.8419C10.3682 58.3315 10.0443 58.7698 9.69583 59.3618C9.37256 59.9109 9.05463 60.5608 9.05463 61.3015H10.0546C10.0546 60.842 10.2523 60.3877 10.5576 59.8691C10.8376 59.3934 11.2552 58.8005 11.4972 58.2359L10.5781 57.8419ZM11.4374 59.3241C11.2419 60.2915 11.0161 61.2209 10.6014 62.0501L11.4959 62.4973C11.9739 61.5414 12.22 60.5002 12.4176 59.5221L11.4374 59.3241ZM10.6014 62.0501C10.4221 62.4088 10.4388 62.7551 10.4388 62.9823H11.4388C11.4388 62.7011 11.4412 62.6068 11.4959 62.4973L10.6014 62.0501ZM13.231 60.8521C13.1469 61.1141 13.0692 61.4013 12.9927 61.6865C12.9152 61.9757 12.8382 62.265 12.7521 62.5487C12.5772 63.1251 12.3805 63.621 12.1206 63.9675L12.9206 64.5675C13.2912 64.0735 13.5281 63.4353 13.709 62.8391C13.8008 62.5365 13.8823 62.23 13.9586 61.9455C14.036 61.6571 14.1076 61.3929 14.1831 61.1577L13.231 60.8521ZM15.3641 62.4132C14.6671 63.4854 14.0426 64.6459 13.6282 65.889L14.5769 66.2053C14.9559 65.0682 15.5345 63.9858 16.2025 62.9582L15.3641 62.4132ZM17.0235 64.1271C16.8081 64.2467 16.6782 64.4614 16.6047 64.6004C16.5197 64.7613 16.4477 64.9466 16.3878 65.1171C16.3274 65.2888 16.272 65.467 16.2263 65.61C16.1766 65.7657 16.1427 65.8649 16.1187 65.918L17.0298 66.3301C17.0823 66.2141 17.1338 66.0556 17.1789 65.9144C17.2281 65.7606 17.277 65.6028 17.3312 65.4487C17.3858 65.2933 17.4385 65.163 17.4888 65.0679C17.5507 64.9508 17.5669 64.9691 17.5091 65.0012L17.0235 64.1271ZM16.1187 65.918C16.0095 66.1593 15.8905 66.3839 15.76 66.6474C15.6345 66.9009 15.5061 67.1761 15.4078 67.4709L16.3565 67.7871C16.4324 67.5593 16.5362 67.3336 16.6562 67.0911C16.7713 66.8587 16.9113 66.5921 17.0298 66.3301L16.1187 65.918ZM18.5493 65.791C18.4849 66.339 18.2865 66.8783 18.0462 67.4623C17.8142 68.0261 17.5334 68.6513 17.3744 69.2874L18.3446 69.5299C18.4809 68.9848 18.7201 68.4524 18.9709 67.8429C19.2134 67.2536 19.4606 66.6039 19.5425 65.9078L18.5493 65.791ZM20.0717 67.5255C19.8795 67.9597 19.6135 68.3722 19.3261 68.84C19.0483 69.292 18.7539 69.791 18.5716 70.3381L19.5202 70.6543C19.6624 70.2278 19.9001 69.8158 20.178 69.3636C20.4463 68.9271 20.7595 68.4422 20.9861 67.9303L20.0717 67.5255ZM20.6334 72.869C20.6334 72.2795 20.8562 71.8858 21.2186 71.2333L20.3445 70.7477C20.0015 71.3651 19.6334 71.9804 19.6334 72.869H20.6334ZM21.2186 71.2333C21.3146 71.0605 21.4318 70.9147 21.5936 70.6801C21.7383 70.4704 21.9055 70.2046 21.9897 69.889L21.0235 69.6313C20.9857 69.773 20.902 69.9216 20.7704 70.1123C20.6559 70.2783 20.4715 70.519 20.3445 70.7477L21.2186 71.2333ZM21.9897 69.889C22.0217 69.7692 22.0392 69.6758 22.0507 69.6193C22.0644 69.5518 22.0652 69.564 22.0545 69.5866C22.0357 69.626 22.0119 69.6454 22.0184 69.64C22.0348 69.6264 22.074 69.5985 22.1703 69.5408L21.6558 68.6833C21.4773 68.7904 21.2648 68.9189 21.1517 69.1565C21.1021 69.2605 21.0819 69.3649 21.0707 69.4204C21.0572 69.4868 21.0459 69.547 21.0235 69.6313L21.9897 69.889ZM22.4545 71.3601C22.2145 71.8402 21.8986 72.3106 21.5639 72.8937C21.2492 73.4419 20.9386 74.0596 20.8272 74.7002L21.8124 74.8716C21.8921 74.4134 22.126 73.9232 22.4311 73.3916C22.7162 72.8949 23.0958 72.3136 23.3489 71.8073L22.4545 71.3601ZM20.8272 74.7002C20.8199 74.7425 20.7991 74.7955 20.7416 74.9051C20.6943 74.9955 20.603 75.1563 20.547 75.3311L21.4994 75.6359C21.5218 75.5659 21.5569 75.5037 21.6273 75.3694C21.6877 75.2543 21.776 75.0809 21.8124 74.8716L20.8272 74.7002ZM20.547 75.3311L20.5456 75.3356L21.498 75.6404L21.4994 75.6359L20.547 75.3311ZM20.5455 75.3357C20.5286 75.3888 20.486 75.5208 20.4507 75.6051C20.4423 75.6252 20.4385 75.6324 20.4394 75.6307C20.4398 75.6299 20.4452 75.6198 20.4557 75.6049C20.4623 75.5955 20.4915 75.5539 20.5449 75.5123C20.5887 75.4783 20.7562 75.3631 20.9844 75.4315C21.2015 75.4965 21.2793 75.6718 21.2957 75.712C21.3321 75.8014 21.3255 75.8708 21.3255 75.835H20.3255C20.3255 75.8659 20.3241 75.9776 20.3696 76.0894C20.3906 76.1409 20.4739 76.3225 20.6975 76.3894C20.9322 76.4597 21.1069 76.342 21.1586 76.3019C21.2594 76.2235 21.3115 76.1204 21.3194 76.1056C21.3408 76.0661 21.359 76.025 21.3732 75.9911C21.4283 75.8595 21.4839 75.6845 21.498 75.6402L20.5455 75.3357ZM23.517 73.3968C23.173 74.3859 22.5414 75.277 21.9368 76.2664L22.7901 76.7878C23.344 75.8815 24.0711 74.8477 24.4615 73.7253L23.517 73.3968ZM21.9368 76.2664C21.9032 76.3213 21.8789 76.3797 21.8649 76.4145C21.8484 76.4555 21.8322 76.5002 21.8178 76.5407C21.7862 76.6292 21.7607 76.7043 21.7336 76.7718C21.7206 76.8042 21.711 76.8252 21.7049 76.8371C21.6957 76.8551 21.7036 76.8344 21.7326 76.8027C21.7441 76.79 21.8868 76.6315 22.1324 76.6698C22.3704 76.7069 22.4568 76.8921 22.4591 76.8967L21.5647 77.3439C21.5946 77.4037 21.7101 77.616 21.9782 77.6578C22.2538 77.7009 22.4276 77.5245 22.4707 77.4773C22.5728 77.3656 22.6345 77.2121 22.6619 77.1437C22.6985 77.0524 22.7348 76.9464 22.7598 76.8763C22.7951 76.7771 22.8025 76.7675 22.7901 76.7878L21.9368 76.2664ZM24.8927 74.9067C24.5982 75.9373 24.1721 77.0102 23.7301 78.0047L24.6439 78.4109C25.0954 77.395 25.5418 76.2748 25.8542 75.1814L24.8927 74.9067ZM27.2512 76.4564C27.1899 76.8857 27.0187 77.3069 26.8284 77.8239C26.6482 78.3134 26.4553 78.8817 26.4553 79.4931H27.4553C27.4553 79.0773 27.5869 78.6582 27.7669 78.1693C27.9367 77.7079 28.1609 77.1598 28.2412 76.5978L27.2512 76.4564ZM30.5327 77.3457C29.3703 77.7927 28.2341 78.7438 27.6087 79.8382L28.4769 80.3344C28.9838 79.4473 29.9364 78.6464 30.8917 78.279L30.5327 77.3457ZM30.524 79.1752C29.8304 80.0175 29.3275 80.8216 28.8745 81.7984L29.7817 82.2191C30.1994 81.3184 30.657 80.5868 31.2959 79.811L30.524 79.1752ZM28.8745 81.7984C28.7483 82.0705 28.7084 82.3291 28.6823 82.535C28.6542 82.756 28.6424 82.8952 28.5971 83.0441L29.5538 83.3352C29.6306 83.0829 29.6528 82.8307 29.6743 82.6611C29.6978 82.4764 29.7232 82.3452 29.7817 82.2191L28.8745 81.7984ZM28.5971 83.0441C28.5833 83.0894 28.5648 83.1218 28.5098 83.2209C28.4586 83.313 28.3818 83.4548 28.3435 83.6463L29.324 83.8425C29.3303 83.8112 29.3417 83.7825 29.384 83.7065C29.4223 83.6374 29.5025 83.5038 29.5538 83.3352L28.5971 83.0441ZM31.7891 81.772C30.8115 83.1335 29.781 84.5182 29.3374 86.2925L30.3075 86.5351C30.6963 84.98 31.5984 83.752 32.6014 82.3553L31.7891 81.772ZM32.9506 84.5571C32.5498 84.9134 32.2436 85.3746 31.9885 85.8136C31.86 86.0349 31.7385 86.2612 31.6244 86.472C31.5085 86.6861 31.3999 86.8848 31.2898 87.0665L32.145 87.5847C32.2693 87.3796 32.3886 87.161 32.5039 86.948C32.6209 86.7317 32.734 86.5211 32.8532 86.3159C33.0936 85.9022 33.3356 85.5528 33.6149 85.3045L32.9506 84.5571ZM31.2898 87.0665C31.2264 87.171 31.1623 87.2655 31.0836 87.3871C31.0097 87.5012 30.9287 87.6311 30.8582 87.7721L31.7526 88.2193C31.7976 88.1293 31.8542 88.037 31.9232 87.9302C31.9875 87.8309 32.0716 87.7058 32.145 87.5847L31.2898 87.0665ZM33.9064 86.6654C33.2436 87.3735 32.3732 88.1751 31.7844 89.1004L32.628 89.6373C33.1504 88.8165 33.8979 88.1378 34.6365 87.3487L33.9064 86.6654ZM31.7844 89.1004C31.7602 89.1384 31.7395 89.1734 31.7227 89.2019C31.7047 89.2325 31.6933 89.2521 31.6815 89.2711C31.6604 89.305 31.6507 89.3161 31.6439 89.3229L32.3511 90.03C32.4334 89.9476 32.4895 89.8656 32.5312 89.7983C32.5508 89.7667 32.5701 89.7337 32.5845 89.7092C32.6002 89.6825 32.6137 89.6599 32.628 89.6373L31.7844 89.1004ZM31.008 94.1358C31.9679 92.9017 33.0506 92.0388 34.2693 90.9825L33.6144 90.2268C32.4346 91.2494 31.2545 92.1901 30.2187 93.5219L31.008 94.1358ZM34.2693 90.9825C34.3907 90.8773 34.5062 90.7582 34.6103 90.6479C34.72 90.5317 34.8141 90.4286 34.9156 90.3265C35.1231 90.1177 35.2814 89.9987 35.4182 89.953L35.102 89.0044C34.7272 89.1293 34.4287 89.3978 34.2063 89.6216C34.0928 89.7358 33.9785 89.8604 33.8831 89.9615C33.782 90.0686 33.6954 90.1566 33.6144 90.2268L34.2693 90.9825ZM32.5815 94.7186C32.3142 94.9252 31.9444 95.1882 31.6298 95.4812C31.3092 95.7798 30.9914 96.1559 30.8311 96.6368L31.7798 96.953C31.8646 96.6985 32.0474 96.4588 32.3113 96.213C32.5812 95.9617 32.8797 95.752 33.1931 95.5097L32.5815 94.7186ZM32.961 97.8098L32.0712 99.1939L32.9124 99.7347L33.8022 98.3505L32.961 97.8098ZM35.0952 98.6788C34.9375 99.0573 34.8101 99.4309 34.6869 99.8005L35.6356 100.117C35.7583 99.7485 35.8758 99.4053 36.0183 99.0634L35.0952 98.6788ZM37.6735 98.9577C37.428 99.4882 37.195 100.02 36.9728 100.559L37.8975 100.94C38.114 100.414 38.3412 99.8959 38.581 99.3777L37.6735 98.9577ZM39.9468 98.9591C39.8945 99.073 39.8286 99.1987 39.751 99.3463C39.6759 99.4892 39.5914 99.6499 39.514 99.815C39.3639 100.135 39.2092 100.535 39.2092 100.947H40.2092C40.2092 100.765 40.2825 100.532 40.4195 100.239C40.4856 100.098 40.5594 99.9576 40.6362 99.8116C40.7105 99.6702 40.79 99.5193 40.8557 99.3763L39.9468 98.9591ZM22.2493 31.5625C22.0555 31.6271 21.9242 31.7638 21.8478 31.8589C21.7641 31.963 21.6966 32.0802 21.6442 32.1848C21.5391 32.3946 21.4635 32.6169 21.4268 32.7453L22.3883 33.02C22.4131 32.9332 22.4684 32.7723 22.5383 32.6328C22.5734 32.5627 22.6045 32.5138 22.6272 32.4854C22.6572 32.4482 22.6402 32.4862 22.5655 32.5112L22.2493 31.5625ZM21.4268 32.7453C21.4017 32.8333 21.3366 33.0408 21.2852 33.1571C21.2724 33.1861 21.2685 33.1906 21.2744 33.1814C21.2768 33.1776 21.2922 33.1535 21.3218 33.1242C21.341 33.1053 21.4296 33.0186 21.5826 32.9964C21.79 32.9662 21.9496 33.0712 22.0304 33.1729C22.092 33.2505 22.1093 33.3233 22.1124 33.3356C22.1208 33.3697 22.1165 33.3765 22.1165 33.3221H21.1165C21.1165 33.3933 21.1196 33.4863 21.1413 33.5744C21.151 33.6137 21.1764 33.7055 21.2473 33.7948C21.3374 33.9082 21.5076 34.0178 21.7266 33.986C21.8912 33.962 21.9925 33.8674 22.0251 33.8351C22.0682 33.7925 22.0979 33.7497 22.1152 33.7227C22.151 33.6672 22.1794 33.6075 22.1998 33.5615C22.2808 33.3781 22.3613 33.1145 22.3883 33.02L21.4268 32.7453ZM19.71 30.5845C19.5418 30.8523 19.4099 31.0932 19.229 31.3652C19.0555 31.6262 18.8947 31.8218 18.7459 31.9334L19.3459 32.7334C19.6365 32.5155 19.8741 32.2012 20.0618 31.9188C20.2422 31.6475 20.4343 31.3115 20.5569 31.1163L19.71 30.5845ZM18.6512 28.665C18.2514 29.179 17.9919 29.7109 17.7226 30.2045L18.6005 30.6834C18.8968 30.1402 19.1049 29.7104 19.4406 29.2789L18.6512 28.665ZM17.7226 30.2045C17.6628 30.3142 17.6453 30.3429 17.6471 30.3404C17.649 30.3376 17.6543 30.3298 17.6624 30.3196C17.668 30.3124 17.6874 30.2879 17.7177 30.2607C17.7329 30.2471 17.7627 30.2219 17.8056 30.1978C17.8435 30.1765 17.9318 30.1331 18.0537 30.1341C18.2008 30.1354 18.3367 30.2012 18.4288 30.309C18.505 30.3981 18.529 30.4895 18.5376 30.5301C18.5544 30.6103 18.5463 30.6746 18.5452 30.6843C18.5428 30.706 18.5394 30.722 18.5381 30.7281C18.5353 30.7409 18.5331 30.748 18.5343 30.744C18.5377 30.7323 18.6095 30.5217 18.6442 30.3657L17.668 30.1487C17.6411 30.2698 17.6071 30.3515 17.5744 30.4634C17.5711 30.4748 17.5654 30.4948 17.5606 30.5174C17.5582 30.5283 17.5541 30.5486 17.5513 30.5736C17.5499 30.5867 17.5417 30.6535 17.5589 30.7355C17.5676 30.7769 17.592 30.8689 17.6685 30.9585C17.7609 31.0668 17.8973 31.1328 18.045 31.1341C18.1675 31.1351 18.2565 31.0915 18.2952 31.0697C18.3388 31.0452 18.3696 31.0194 18.3857 31.0049C18.4382 30.9578 18.4711 30.907 18.4739 30.9028C18.5067 30.8547 18.5518 30.7727 18.6005 30.6834L17.7226 30.2045ZM16.9956 28.7271C17.2973 28.5762 17.5244 28.3715 17.7047 28.2046C17.897 28.0266 18.0319 27.8967 18.199 27.7936L17.6739 26.9426C17.405 27.1084 17.1902 27.3182 17.0254 27.4708C16.8487 27.6344 16.7115 27.7511 16.5484 27.8327L16.9956 28.7271ZM18.199 27.7936C18.3451 27.7034 18.5056 27.6195 18.6859 27.5237C18.8584 27.4321 19.0505 27.3288 19.2244 27.2129L18.6697 26.3808C18.5429 26.4654 18.3928 26.5471 18.2168 26.6406C18.0486 26.7299 17.8541 26.8314 17.6739 26.9426L18.199 27.7936ZM16.3741 26.6886C16.3837 26.6358 16.4185 26.5561 16.5135 26.4474C16.6081 26.3393 16.7412 26.2267 16.9059 26.1089C17.0696 25.9918 17.2475 25.8814 17.4277 25.7706C17.5996 25.6649 17.7862 25.5514 17.9346 25.443L17.3449 24.6354C17.2363 24.7147 17.0903 24.8041 16.9039 24.9187C16.726 25.0281 16.52 25.1554 16.3242 25.2955C16.1294 25.4348 15.9272 25.5988 15.7609 25.789C15.595 25.9786 15.4431 26.2188 15.3902 26.5097L16.3741 26.6886ZM17.9346 25.443C18.1787 25.2648 18.3693 25.0394 18.5034 24.8928C18.6526 24.7297 18.7559 24.6337 18.874 24.5747L18.4268 23.6802C18.1305 23.8284 17.9216 24.0473 17.7656 24.2178C17.5945 24.4048 17.487 24.5317 17.3449 24.6354L17.9346 25.443ZM16.2596 23.1585C16.5351 22.9737 16.841 22.8201 17.2302 22.5869C17.5807 22.3769 17.9759 22.1129 18.2499 21.7704L17.4691 21.1457C17.3151 21.3381 17.0557 21.5258 16.7163 21.7291C16.4156 21.9093 15.9963 22.1309 15.7024 22.3281L16.2596 23.1585ZM15.6384 21.1235L15.649 21.1132L14.9501 20.398L14.9395 20.4084L15.6384 21.1235ZM15.649 21.1132C15.9672 20.8022 16.3459 20.4327 16.7492 20.1136C17.1604 19.7883 17.5499 19.5544 17.8819 19.4714L17.6394 18.5013C17.0969 18.6369 16.5716 18.979 16.1288 19.3294C15.6781 19.6859 15.2634 20.0918 14.9501 20.398L15.649 21.1132ZM14.9666 18.5168C15.3814 18.2495 15.8067 17.9983 16.2419 17.7389C16.674 17.4814 17.1146 17.2167 17.5436 16.9307L16.9889 16.0986C16.5834 16.369 16.1626 16.6221 15.73 16.8798C15.3007 17.1357 14.8579 17.3972 14.4249 17.6763L14.9666 18.5168ZM15.4598 16.2925C15.8469 16.1517 16.2118 15.929 16.5032 15.7679C16.8164 15.5947 17.0776 15.4711 17.3485 15.426L17.1841 14.4396C16.7331 14.5148 16.3447 14.7128 16.0192 14.8928C15.6719 15.0849 15.4091 15.2469 15.1181 15.3527L15.4598 16.2925ZM16.3598 13.8441C17.0661 13.7264 17.7568 13.3944 18.3474 13.1376C18.9732 12.8655 19.5103 12.6645 20.0345 12.6645V11.6645C19.2785 11.6645 18.5666 11.9518 17.9487 12.2205C17.2957 12.5044 16.7481 12.7656 16.1954 12.8577L16.3598 13.8441ZM18.3538 9.69849H20.0346V8.69849H18.3538V9.69849Z" fill="#FDFEFF"/>
</g>
</svg>
