<svg width="73" height="66" viewBox="0 0 73 66" fill="none" xmlns="http://www.w3.org/2000/svg">
<path id="headphones" fill-rule="evenodd" clip-rule="evenodd" d="M22.4019 52.8194L12.7464 38.2858C12.7464 38.2858 11.5058 36.1603 13.0677 34.7328C14.6315 33.3047 16.5854 33.4369 19.8119 37.2427C23.0392 41.0462 25.8999 44.9971 28.5312 48.6414C31.1619 52.2833 34.8199 58.2107 34.3218 60.4614C33.8239 62.7106 31.0913 63.7071 29.6084 62.6266C28.1245 61.547 22.3397 52.7837 22.4021 52.8201L22.4019 52.8194ZM54.3527 44.814L56.0161 27.4445C56.0161 27.4445 56.1061 24.9856 54.0556 24.4632C52.0051 23.9407 50.3425 24.979 49.2921 29.8563C48.2407 34.732 47.5789 39.5654 46.9767 44.0198C46.3734 48.472 45.9441 55.4235 47.444 57.1736C48.9449 58.922 51.8222 58.513 52.6215 56.8606C53.4205 55.209 54.3899 44.7534 54.3527 44.8148L54.3527 44.814ZM55.8339 25.2401C56.0217 25.1418 56.2079 25.0864 56.3897 25.0936C57.7164 25.149 60.6624 26.718 60.6624 26.718C60.6624 26.718 61.6594 27.3472 61.5336 30.0757C61.4077 32.8035 61.1432 38.4969 61.1432 38.4969L65.9385 39.7691C65.9385 39.7691 68.5926 40.4789 68.3006 42.4428C68.0096 44.4083 65.4372 43.4201 65.4372 43.4201L60.8488 41.952C60.8488 41.952 59.9466 49.6425 59.4373 52.751C58.9282 55.8602 57.4188 58.0003 56.73 58.3807C56.0411 58.7605 54.7011 58.7591 53.6775 58.705C53.094 58.6733 52.5868 58.3885 52.1922 58.0662C52.5288 57.8073 52.8109 57.4734 53.0098 57.0617C53.5766 55.8887 53.9593 52.4281 54.1316 51.0542C54.3101 49.6327 54.4686 48.2069 54.6109 46.781C54.6592 46.3124 54.7041 45.8434 54.7463 45.3743C54.7567 45.2444 54.7693 45.1133 54.7775 44.9826C54.7816 44.9423 54.7812 44.9017 54.7776 44.864L56.4474 27.4736C56.4876 26.6798 56.2674 25.8787 55.8347 25.2408L55.8339 25.2401ZM61.8577 30.3809C62.3692 30.5766 63.047 30.9172 63.4791 31.4494C63.9293 32.0016 64.1866 35.2998 64.2155 38.9566L61.493 38.2332C61.6287 35.6196 61.7378 32.9979 61.8575 30.3803L61.8577 30.3809ZM64.1373 43.3631C64.0862 44.4867 64.0112 45.5512 63.909 46.481C63.3575 51.5418 62.625 53.1529 61.748 53.8918C61.2851 54.2817 60.1712 54.6454 59.2199 54.9038C59.4911 54.1068 59.6803 53.3476 59.7688 52.8117C60.3256 49.4207 60.7656 45.8411 61.1394 42.4042L64.1373 43.3631ZM67.8763 43.6711C67.8763 43.6711 67.1558 44.3188 64.501 43.5052C64.501 43.5052 64.5652 45.1744 64.2831 45.8663C64.2831 45.8663 67.5359 46.1414 67.8763 43.6711ZM67.6289 40.0519C67.6289 40.0519 66.8613 39.2079 65.2993 39.0275L63.0501 24.401L63.3668 23.9564L59.8582 20.246C59.8582 20.246 59.2155 20.2504 58.3286 19.6816C57.4391 19.1135 55.9648 17.5663 55.9648 17.5663C55.9648 17.5663 55.3972 17.8391 53.8118 16.5517C45.8089 10.0608 38.5911 8.56175 28.8567 10.7829C19.3325 13.1692 13.4019 18.4929 9.55255 27.6409C8.76162 29.5244 8.13228 29.5508 8.13228 29.5508C8.13228 29.5508 7.56213 31.6102 7.04687 32.5304C6.5316 33.4506 5.96101 33.7501 5.96101 33.7501L4.61636 38.6765L5.10708 38.9187L10.0194 52.878C8.72747 53.7728 8.4487 54.8796 8.4487 54.8796C8.44246 54.8132 1.39229 39.9854 1.39229 39.9854L2.21187 39.6241C-2.6639 25.8109 1.11309 16.6722 3.77277 11.9626C8.22688 4.08262 16.6719 -1.47072 25.3011 -3.37895C33.8074 -5.76544 43.876 -4.84882 51.5167 0.000224854C56.083 2.89985 63.7234 9.17845 65.9357 23.658L66.8288 23.5901C66.8288 23.5901 67.603 39.991 67.6294 40.0517L67.6289 40.0519ZM28.4473 9.1756C35.3746 7.37598 43.9821 7.93156 50.4016 11.4966C55.0985 14.1037 60.0666 19.0031 60.0666 19.0031C60.0666 19.0031 60.5206 19.4071 60.3396 19.893L63.7402 23.787C63.7402 23.787 63.252 13.7541 55.5307 5.52717C49.5304 -0.863621 40.4788 -2.41906 32.2339 -1.78733C30.0659 -1.594 27.9539 -1.23677 25.9618 -0.750972C23.976 -0.240093 21.942 0.441462 19.9383 1.29335C12.3701 4.62367 5.12172 10.2629 2.84404 18.7279C-0.0854415 29.6232 4.21274 38.7018 4.21274 38.7018L5.37744 33.6639C4.98632 33.3214 5.19798 32.7505 5.19798 32.7505C5.19798 32.7505 7.26968 26.0878 10.1813 21.5739C14.1613 15.4034 21.49 10.8548 28.4491 9.17515L28.4473 9.1756ZM11.8671 36.2551C11.6564 36.2566 11.4648 36.2959 11.308 36.3878C10.1629 37.0626 8.30586 39.835 8.30586 39.835C8.30586 39.835 7.72459 40.8596 9.12078 43.2068C10.5168 45.5533 13.435 50.4492 13.435 50.4492L9.80683 53.832C9.80683 53.832 7.80148 55.7092 8.98437 57.3035C10.1677 58.8997 11.9699 56.8154 11.9699 56.8154L15.3239 53.3573C15.3239 53.3573 19.7469 59.7136 21.6605 62.215C23.5773 64.7163 25.9169 65.8921 26.7024 65.9031C27.4909 65.9128 28.67 65.2802 29.5472 64.7498C30.0468 64.4467 30.3599 63.9565 30.5576 63.4857C30.14 63.4158 29.7313 63.2549 29.3624 62.9855C28.3095 62.2184 26.3396 59.3472 25.5393 58.217C24.7117 57.0476 23.9002 55.8648 23.1012 54.6748C22.8395 54.2839 22.5788 53.8914 22.3209 53.4975C22.2481 53.3885 22.1776 53.2782 22.1058 53.1676C22.0843 53.1336 22.0661 53.0975 22.0509 53.0627L12.3793 38.5139C11.9702 37.8327 11.7861 37.0225 11.8669 36.256L11.8671 36.2551ZM8.97892 43.6287C8.62069 44.0423 8.18174 44.6628 8.05279 45.3355C7.91802 46.0343 9.24316 49.065 10.9419 52.3033L13.0017 50.3818C11.6502 48.1407 10.3186 45.8801 8.97867 43.6281L8.97892 43.6287ZM13.0898 56.1521C13.6634 57.1192 14.2327 58.0223 14.7612 58.794C17.6333 62.9971 19.0389 64.0725 20.1611 64.3104C20.7514 64.4365 21.9082 64.2312 22.8671 64.011C22.2527 63.4359 21.7286 62.8555 21.3966 62.4249C19.3086 59.6966 17.2309 56.7478 15.2814 53.893L13.0898 56.1521ZM9.93719 58.1868C9.93719 58.1868 10.8786 58.4181 12.8356 56.449C12.8356 56.449 13.5678 57.9509 14.1409 58.4285C14.1409 58.4285 11.4022 60.2048 9.93719 58.1868ZM41.5766 -9.90781C41.5766 -9.90781 40.6588 -9.13739 40.8715 -8.28839C41.0836 -7.44188 41.7762 -6.77511 41.7762 -6.77511C41.7762 -6.77511 45.6887 -5.65291 46.5138 -5.85964C47.3389 -6.06638 48.4687 -6.22884 49.7277 -5.64328C50.9868 -5.05911 61.1798 -3.58382 67.9424 18.7404C74.7064 41.0645 67.5245 46.0456 64.3517 48.1013L64.2232 49.455C64.2232 49.455 79.3477 42.7832 69.6451 18.0743C59.943 -6.63559 50.2817 -7.81631 50.2817 -7.81631C50.2817 -7.81631 48.0705 -8.22526 47.6947 -8.79217C47.3188 -9.35907 44.1515 -10.7867 41.5766 -9.90494L41.5766 -9.90781Z" fill="#FF8E0A"/>
</svg>
